<?xml version="1.0" standalone="no"?>
<!DOCTYPE svg PUBLIC "-//W3C//DTD SVG 1.1//EN" "http://www.w3.org/Graphics/SVG/1.1/DTD/svg11.dtd" >
<svg>
<metadata>
Created by FontForge 20120731 at Sat Apr 16 19:46:03 2016
 By www
Copyright (c) 1998, 2004, Linotype Library GmbH, www.linotype.com. All rights reserved. This software may not be reproduced, used, displayed, modified, disclosed or transferred without the express written approval of Linotype Library GmbH.
</metadata>
<defs>
<font id="HawthornW01-Regular" horiz-adv-x="500" >
  <font-face 
    font-family="HawthornW01-Regular"
    font-weight="400"
    font-stretch="normal"
    units-per-em="1000"
    panose-1="2 0 5 6 8 0 0 2 0 3"
    ascent="800"
    descent="-200"
    x-height="443"
    cap-height="667"
    bbox="-42 -250 960 888"
    underline-thickness="72"
    underline-position="-127"
    unicode-range="U+000D-2122"
  />
<missing-glyph horiz-adv-x="300" 
 />
    <glyph glyph-name=".notdef" horiz-adv-x="300" 
 />
    <glyph glyph-name=".null" horiz-adv-x="0" 
 />
    <glyph glyph-name="uni000D" unicode="&#xd;" horiz-adv-x="600" 
 />
    <glyph glyph-name="glyph219" horiz-adv-x="0" 
 />
    <glyph glyph-name="glyph219" horiz-adv-x="0" 
 />
    <glyph glyph-name="space" unicode=" " horiz-adv-x="300" 
 />
    <glyph glyph-name="exclam" unicode="!" horiz-adv-x="244" 
d="M113 178l-61 343q-5 26 -7 40t-3.5 22t-1.5 12v9q0 33 23.5 55.5t58.5 22.5t58.5 -22.5t23.5 -57.5v-10t-1.5 -12t-4 -22.5t-6.5 -41.5l-57 -338h-22zM123 139q32 0 54.5 -22.5t22.5 -54.5t-22.5 -54.5t-54.5 -22.5t-54.5 22.5t-22.5 54.5t22.5 54.5t54.5 22.5z" />
    <glyph glyph-name="quotedbl" unicode="&#x22;" horiz-adv-x="435" 
d="M293 399l-39 268h139l-40 -268h-60zM81 399l-40 268h140l-40 -268h-60z" />
    <glyph glyph-name="numbersign" unicode="#" horiz-adv-x="455" 
d="M261 249l23 168h-89l-24 -168h90zM144 57h-72l16 112h-68l11 80h68l24 168h-68l11 80h68l16 112h72l-16 -112h89l16 112h72l-16 -112h68l-11 -80h-68l-23 -168h68l-12 -80h-68l-15 -112h-72l15 112h-89z" />
    <glyph glyph-name="dollar" unicode="$" horiz-adv-x="524" 
d="M120 196l4 -3q8 -36 18 -58.5t26 -41.5q22 -25 52.5 -38.5t64.5 -13.5q45 0 70 24.5t25 66.5q0 46 -32 76q-8 7 -15.5 12.5t-17.5 11t-24.5 12t-35.5 15.5q-45 17 -72.5 31t-46.5 28q-35 24 -53 60t-18 80q0 78 44 132.5t122 71.5v82h66v-78q41 -2 81.5 -9t75.5 -20
l-71 -145l-4 2q-12 60 -47 92t-87 32q-39 0 -65.5 -22.5t-26.5 -56.5q0 -36 26 -60.5t84 -43.5q44 -14 71.5 -25t48.5 -22q47 -25 72 -68.5t25 -99.5q0 -54 -22 -101.5t-61 -77.5q-18 -14 -40 -23t-60 -19v-75h-66v71q-62 1 -108.5 13t-92.5 39z" />
    <glyph glyph-name="percent" unicode="%" horiz-adv-x="645" 
d="M469 317q-38 0 -38 -134q0 -90 9 -127.5t31 -37.5q40 0 40 129q0 88 -10 129t-32 41zM472 346q48 0 94 -41q61 -57 61 -137q0 -34 -13.5 -66.5t-35.5 -57.5t-50.5 -40.5t-58.5 -15.5q-29 0 -56.5 15t-49 40t-34.5 57t-13 66q0 35 13 67.5t34.5 57.5t49.5 40t59 15z
M140 -16h-34l401 699h32zM171 650q-38 0 -38 -134q0 -90 9 -127.5t30 -37.5q40 0 40 129q0 88 -10 129t-31 41zM173 679q30 0 58 -14.5t49.5 -39.5t34.5 -57t13 -67q0 -34 -13.5 -66.5t-35.5 -57.5t-50 -40.5t-58 -15.5q-29 0 -56.5 15t-49 40t-34.5 57t-13 66q0 35 13 67.5
t34.5 57.5t49.5 40t58 15z" />
    <glyph glyph-name="ampersand" unicode="&#x26;" horiz-adv-x="640" 
d="M208 387q-20 -22 -28.5 -40.5t-8.5 -44.5q0 -35 12 -79.5t32 -83.5q31 -63 72 -63q13 0 23.5 6t24.5 21zM471 153q14 -30 29.5 -43.5t35.5 -13.5q26 0 48 25q-2 -33 -8.5 -54t-21.5 -40q-17 -21 -41.5 -33t-50.5 -12q-69 0 -111 86q-19 -25 -36.5 -42t-35 -27.5t-37 -15
t-42.5 -4.5q-34 0 -62 12.5t-48.5 35.5t-31.5 54.5t-11 69.5q0 45 17 94t47 91q16 22 34.5 41t47.5 44l-14 31q-9 21 -15 35.5t-9 26.5t-4.5 22t-1.5 21q0 30 12.5 54.5t35.5 42t54.5 27.5t69.5 10q37 0 71 -11t59 -30t40 -43.5t15 -52.5q0 -35 -20.5 -57.5t-52.5 -22.5
q-41 0 -59 38q-5 11 -7.5 25t-4.5 41q-2 42 -12 57.5t-33 15.5q-17 0 -28 -11t-11 -29q0 -13 5 -29t19 -47l127 -288q7 15 12 25t8 18t4 14t1 13q0 18 -10 31.5t-34 27.5h198l3 -13q-32 -18 -55.5 -34t-42.5 -33.5t-35 -38.5t-32 -49z" />
    <glyph glyph-name="quotesingle" unicode="'" horiz-adv-x="242" 
d="M89 399l-40 268h145l-40 -268h-65z" />
    <glyph glyph-name="parenleft" unicode="(" horiz-adv-x="341" 
d="M319 695l-44 -78q-9 -16 -18.5 -39t-18.5 -50t-17 -56.5t-14 -56.5q-16 -77 -16 -162q0 -128 40 -247q9 -26 15 -42t14.5 -31.5t22 -36.5t37.5 -57l8 -13q-34 12 -79 48t-94 90q-55 61 -85 135t-30 150q0 87 41.5 173.5t129.5 183.5q20 22 35.5 38t29 28t26 22t26.5 20z
" />
    <glyph glyph-name="parenright" unicode=")" horiz-adv-x="341" 
d="M13 714q33 -23 68 -56.5t80 -86.5q69 -82 104.5 -163t35.5 -159q0 -49 -15.5 -104t-41.5 -103q-17 -30 -46 -64t-62 -65t-65.5 -54.5t-57.5 -32.5q2 4 4 7l4 6q10 15 19.5 30t20.5 29q19 29 35.5 70t28.5 88t18.5 97.5t6.5 99.5q0 62 -8.5 119t-27.5 120q-9 31 -15.5 50
t-15 38t-22.5 44.5t-39 70.5q-2 5 -4.5 9.5t-4.5 9.5z" />
    <glyph glyph-name="asterisk" unicode="*" horiz-adv-x="353" 
d="M44 616q7 -13 20.5 -27t29.5 -26t34 -22t36 -16q-2 39 -16 79.5t-35 62.5h126q-10 -11 -19 -28t-16 -36t-11 -39.5t-4 -38.5q37 13 71 39t49 53l39 -120q-20 8 -37 11t-42 3q-22 0 -37 -2t-35 -8q24 -32 59.5 -56t65.5 -30l-102 -74v16q0 29 -11.5 64t-31.5 65
q-20 -29 -32 -64t-12 -64v-7t1 -10l-102 74q15 3 32 11t34 20t32 26t26 29q-20 5 -35.5 7t-37.5 2q-25 0 -41 -3t-37 -11z" />
    <glyph glyph-name="plus" unicode="+" horiz-adv-x="333" 
d="M319 373v-80h-112v-112h-80v112h-112v80h112v112h80v-112h112z" />
    <glyph glyph-name="comma" unicode="," horiz-adv-x="228" 
d="M104 -12q-29 10 -41.5 25.5t-12.5 41.5q0 32 22 53.5t53 21.5q33 0 54.5 -23t21.5 -59q0 -30 -12 -57.5t-34.5 -49.5t-53.5 -37.5t-69 -22.5q34 31 50.5 56t21.5 51z" />
    <glyph glyph-name="hyphen" unicode="-" horiz-adv-x="200" 
d="M0 197v73h200v-73h-200z" />
    <glyph glyph-name="period" unicode="." horiz-adv-x="229" 
d="M117 138q32 0 54 -22.5t22 -55.5q0 -31 -22 -53t-54 -22t-54.5 22t-22.5 54t22.5 54.5t54.5 22.5z" />
    <glyph glyph-name="slash" unicode="/" horiz-adv-x="406" 
d="M63 -102h-76l332 769h77z" />
    <glyph glyph-name="zero" unicode="0" horiz-adv-x="548" 
d="M269 649q-66 0 -66 -285q0 -103 5 -178.5t15 -112.5q14 -55 51 -55q32 0 46 43q24 75 24 228q0 75 -3.5 141t-11.5 120q-13 99 -60 99zM276 688q75 0 146 -82q96 -111 96 -270q0 -68 -21 -132t-56 -114t-79.5 -80.5t-91.5 -30.5q-38 0 -77.5 24t-74.5 69q-88 112 -88 259
q0 70 20.5 134.5t54.5 114t78.5 79t92.5 29.5z" />
    <glyph glyph-name="one" unicode="1" horiz-adv-x="359" 
d="M260 133q0 -26 3 -45.5t9.5 -34.5t17.5 -27t28 -22v-4h-265v4q17 11 28 23t18 26.5t9.5 34t2.5 45.5v301q0 24 -2.5 40.5t-9 27t-17.5 16.5t-29 10v3q135 73 203 158h4v-556z" />
    <glyph glyph-name="two" unicode="2" horiz-adv-x="454" 
d="M10 4q15 19 34.5 47t39.5 58.5t38 60.5t31 54q71 132 71 219q0 50 -28 81.5t-73 31.5q-26 0 -47.5 -11.5t-51.5 -41.5q8 41 26 74.5t44 57.5t58.5 37.5t68.5 13.5t66.5 -13t52 -36t34 -55t12.5 -70q0 -54 -31.5 -117.5t-98.5 -147.5q-12 -14 -28.5 -34t-34 -40
t-33.5 -38.5t-27 -29.5q52 0 93.5 6t74 19.5t58 35.5t45.5 53h3l-42 -257h-5q-10 22 -29.5 30t-63.5 8h-257v4z" />
    <glyph glyph-name="three" unicode="3" horiz-adv-x="428" 
d="M8 540q8 31 26.5 57.5t43.5 46t55 31t61 11.5q33 0 62 -12t51 -32.5t34.5 -48t12.5 -58.5q0 -34 -16.5 -66t-47.5 -58q-12 -11 -23.5 -19t-35.5 -24q37 -6 59 -15.5t42 -27.5q53 -48 53 -125q0 -45 -20.5 -86.5t-59.5 -73.5q-84 -72 -229 -72q-27 0 -42.5 2t-35.5 8
q27 7 46.5 13.5t35 13.5t28.5 14.5t26 16.5q43 31 65 71.5t22 87.5q0 38 -15 67.5t-41 45.5q-13 7 -25.5 12.5t-40.5 15.5l15 10q22 15 35 24t20.5 16t12.5 12t10 13q25 34 25 69q0 21 -8 40t-22 32.5t-33 21.5t-41 8q-11 0 -21 -1.5t-20.5 -5.5t-22.5 -10t-28 -16z" />
    <glyph glyph-name="four" unicode="4" horiz-adv-x="517" 
d="M502 179h-102v-46q0 -26 2 -43.5t7.5 -31t16.5 -26t29 -28.5v-4h-255v4q29 19 40.5 47.5t11.5 81.5v46h-229v4q32 49 60.5 112.5t50 129.5t34 129.5t12.5 112.5h196q-41 -127 -111 -239t-167 -206h154v124q22 12 44 30t41.5 38.5t35 42t23.5 41.5h4v-276h102v-43z" />
    <glyph glyph-name="five" unicode="5" horiz-adv-x="438" 
d="M386 493q-18 19 -38 32.5t-44.5 21.5t-56.5 11.5t-74 3.5h-51l-14 -103q16 2 24 2h20q52 0 94.5 -15.5t72.5 -43.5t46.5 -68t16.5 -88q0 -75 -40 -137t-117 -104q-43 -24 -81.5 -35t-90.5 -15q93 47 142 109t49 132q0 61 -40.5 98t-107.5 37q-11 0 -21 -1t-27 -4l42 341
h216q21 0 35.5 1.5t26 5t20.5 9.5t19 16h4z" />
    <glyph glyph-name="six" unicode="6" horiz-adv-x="502" 
d="M200 314q-1 -16 -1.5 -29.5t-0.5 -33.5q0 -47 3.5 -91.5t8.5 -74.5q6 -31 20 -48.5t33 -17.5q32 0 49.5 45t17.5 126q0 184 -107 184h-8q-4 0 -9 -1q-1 0 -2 -5.5t-1 -10.5zM372 707q-36 -38 -62.5 -72.5t-45.5 -69.5t-31.5 -74t-21.5 -85q17 8 34 11.5t38 3.5
q41 0 76.5 -16t61 -44.5t40 -67.5t14.5 -84q0 -48 -16.5 -89.5t-45.5 -72.5t-67.5 -48.5t-83.5 -17.5q-49 0 -91 23.5t-73.5 64t-49.5 95.5t-18 118q0 73 23 139t66.5 120.5t106.5 97.5t144 71z" />
    <glyph glyph-name="seven" unicode="7" horiz-adv-x="437" 
d="M330 562q-74 0 -122.5 -8t-83.5 -25q-57 -29 -90 -81h-4l46 258h3q6 -12 12 -20t15 -12t23 -5.5t35 -1.5h278l3 -4q-38 -59 -67.5 -130.5t-50 -152t-31 -168t-10.5 -178.5v-13t1 -21h-190q12 71 36.5 146.5t57.5 149t73 142t85 124.5h-19z" />
    <glyph glyph-name="eight" unicode="8" horiz-adv-x="492" 
d="M304 427q14 24 20 46.5t6 48.5q0 27 -7 50.5t-19 41t-28.5 27t-35.5 9.5q-25 0 -42 -17t-17 -42q0 -31 22 -63.5t73 -77.5zM173 330q-14 -25 -19.5 -44.5t-5.5 -44.5q0 -38 14 -75t36 -66t50 -47.5t57 -18.5q26 0 43 16.5t17 40.5q0 19 -6.5 37t-24 41t-48 53.5
t-78.5 74.5q-12 11 -18.5 17t-16.5 16zM335 400q69 -56 101.5 -107.5t32.5 -106.5q0 -42 -18 -79.5t-48.5 -65.5t-72 -44t-88.5 -16q-45 0 -84 14.5t-68.5 40t-46 60t-16.5 73.5q0 51 30.5 98.5t90.5 89.5q-42 39 -63 81t-21 84q0 36 13 66.5t37 52t57 33.5t72 12
q41 0 76 -11t60.5 -30t40 -45t14.5 -56q0 -38 -23 -72t-76 -72z" />
    <glyph glyph-name="nine" unicode="9" horiz-adv-x="502" 
d="M297 294q-1 1 -1 3v1q0 2 0.5 4.5t1.5 6.5q1 3 2 19t2 37t2 42.5t1 35.5q0 17 -2 39.5t-5 45.5t-6.5 43.5t-7.5 34.5q-13 41 -44 41q-32 0 -49.5 -45t-17.5 -130q0 -178 109 -178h15zM129 -39q34 35 61 69.5t46.5 71t33 76t22.5 84.5q-23 -8 -39 -11.5t-35 -3.5
q-40 0 -75 16t-60.5 44.5t-40.5 67t-15 83.5q0 47 17 88.5t46 72.5t68.5 49t84.5 18q47 0 87.5 -20t69.5 -58q35 -45 54 -103t19 -121q0 -97 -42.5 -182.5t-123.5 -149.5q-20 -16 -39.5 -29t-40 -24t-44 -21.5t-51.5 -20.5z" />
    <glyph glyph-name="colon" unicode=":" horiz-adv-x="229" 
d="M117 138q32 0 54 -22.5t22 -55.5q0 -31 -22 -53t-54 -22t-54.5 22t-22.5 54t22.5 54.5t54.5 22.5zM117 458q32 0 54 -22.5t22 -55.5q0 -31 -22 -53t-54 -22t-54.5 22t-22.5 54t22.5 54.5t54.5 22.5z" />
    <glyph glyph-name="semicolon" unicode=";" horiz-adv-x="228" 
d="M125 458q32 0 54 -22.5t22 -55.5q0 -31 -22 -53t-54 -22t-54.5 22t-22.5 54t22.5 54.5t54.5 22.5zM103 -12q-29 10 -41.5 25.5t-12.5 41.5q0 32 22 53.5t53 21.5q33 0 54.5 -23t21.5 -59q0 -30 -12 -57.5t-34.5 -49.5t-53.5 -37.5t-69 -22.5q34 31 50.5 56t21.5 51z" />
    <glyph glyph-name="semicolon" unicode="&#x37e;" horiz-adv-x="228" 
d="M125 458q32 0 54 -22.5t22 -55.5q0 -31 -22 -53t-54 -22t-54.5 22t-22.5 54t22.5 54.5t54.5 22.5zM103 -12q-29 10 -41.5 25.5t-12.5 41.5q0 32 22 53.5t53 21.5q33 0 54.5 -23t21.5 -59q0 -30 -12 -57.5t-34.5 -49.5t-53.5 -37.5t-69 -22.5q34 31 50.5 56t21.5 51z" />
    <glyph glyph-name="less" unicode="&#x3c;" 
d="M460 571l-255 -162l255 -173v-163l-421 287v9l421 264v-62z" />
    <glyph glyph-name="equal" unicode="=" horiz-adv-x="333" 
d="M15 213v80h304v-80h-304zM15 373v80h304v-80h-304z" />
    <glyph glyph-name="greater" unicode="&#x3e;" 
d="M39 134l255 162l-255 173v164l421 -288v-8l-421 -264v61z" />
    <glyph glyph-name="question" unicode="?" horiz-adv-x="454" 
d="M164 170q-13 27 -18.5 53t-5.5 58q0 63 30 116q6 10 11.5 18t14 18t22 23.5t36.5 35.5q58 57 58 95q0 22 -15 36.5t-38 14.5q-24 0 -46.5 -13t-41 -36.5t-31 -54.5t-16.5 -67l-4 -2l-90 165q43 26 93 39t101 13q42 0 78.5 -14t63.5 -38.5t42.5 -58t15.5 -72.5
q0 -65 -51 -125q-7 -8 -14 -15t-15.5 -14.5t-20.5 -17.5t-30 -23q-29 -22 -47.5 -39t-30 -32t-17.5 -30t-8 -33h-26zM184 139q32 0 54.5 -22.5t22.5 -54.5t-22.5 -54.5t-54.5 -22.5t-54.5 22.5t-22.5 54.5t22.5 54.5t54.5 22.5z" />
    <glyph glyph-name="at" unicode="@" horiz-adv-x="671" 
d="M373 448q-29 -16 -43 -32t-25 -45q-8 -22 -12.5 -47.5t-4.5 -46.5q0 -20 4 -28t14 -8q6 0 12.5 1.5t19.5 6.5zM599 159q-22 -26 -38.5 -43t-34.5 -31q-41 -33 -95.5 -51.5t-111.5 -18.5q-61 0 -108 20t-85 63q-74 81 -74 209q0 91 33.5 162.5t98.5 119.5q41 31 88.5 47
t97.5 16q53 0 98.5 -18.5t78.5 -51.5t52 -78t19 -98q0 -57 -26 -104.5t-77 -81.5q-30 -21 -61.5 -32t-60.5 -11q-26 0 -41 14t-15 37q-46 -49 -96 -49q-31 0 -49 21.5t-18 56.5q0 48 26.5 93t71 80t101.5 55.5t118 20.5l4 -5l-32 -183q-6 -33 -6 -46q0 -16 16 -16
q23 0 53 27q49 46 49 120q0 45 -15.5 83t-42.5 66t-64.5 43.5t-81.5 15.5q-59 0 -109 -22.5t-86.5 -63t-57 -95.5t-20.5 -121q0 -110 58 -176q31 -35 77 -55t97 -20q43 0 87 15t81 42q11 8 23.5 18.5t32.5 29.5z" />
    <glyph glyph-name="A" unicode="A" 
d="M201 410l-69 -216h136zM447 111q13 -42 30 -66.5t45 -40.5v-4h-257v4q21 11 29.5 24t8.5 36q0 11 -2.5 24.5t-8.5 31.5l-10 33h-162q-11 -32 -15.5 -51.5t-4.5 -33.5q0 -23 10.5 -38t33.5 -26v-4h-163v4q35 23 55.5 56t39.5 93l166 532h23z" />
    <glyph glyph-name="B" unicode="B" horiz-adv-x="555" 
d="M226 375q7 -1 12 -1h9q54 0 78.5 29t24.5 94q0 71 -21.5 110t-61.5 39q-23 0 -32 -17.5t-9 -60.5v-193zM226 106q0 -47 11.5 -65.5t39.5 -18.5q42 0 65 44t23 125q0 147 -120 147h-8q-5 0 -11 -1v-231zM20 667q28 5 51 8t44 5t42.5 3t46.5 1q84 0 138.5 -11.5t94.5 -36.5
q31 -20 49.5 -53t18.5 -68t-18.5 -67.5t-51.5 -55.5q-20 -13 -39 -20t-51 -14q187 -32 187 -174q0 -36 -14 -69t-40 -57q-79 -75 -246 -75q-54 0 -111 5t-101 13v4q17 12 28 24t17.5 26.5t9 33.5t2.5 45v400q0 26 -2.5 45t-9 33.5t-17.5 26.5t-28 24v4z" />
    <glyph glyph-name="C" unicode="C" horiz-adv-x="455" 
d="M342 431h-5q-4 97 -26.5 150t-58.5 53q-23 0 -39.5 -18t-28.5 -58q-11 -35 -16.5 -81.5t-5.5 -97.5q0 -125 37 -192.5t106 -67.5q45 0 80.5 36t51.5 97h4q1 -11 1 -20v-13q0 -112 -48.5 -175.5t-133.5 -63.5q-53 0 -95 20t-71 56.5t-45 89.5t-16 119q0 81 22.5 162
t63.5 146q70 114 193 114q13 0 25 -1.5t25.5 -5t30 -9.5t37.5 -15z" />
    <glyph glyph-name="D" unicode="D" horiz-adv-x="573" 
d="M226 95q0 -39 10 -57t32 -18q24 0 43 22.5t33 63.5t21.5 99t7.5 129q0 69 -7.5 126.5t-21.5 99t-33.5 64.5t-42.5 23t-32.5 -15.5t-9.5 -53.5v-483zM19 4q17 11 28 22.5t18 26.5t9.5 34t2.5 46v401q0 27 -2.5 46t-9.5 34t-18 26.5t-28 22.5v4q21 3 47 6.5t54 5.5t54 3.5
t47 1.5q88 0 150 -29t107 -92q68 -95 68 -221q0 -80 -24 -148.5t-69 -119.5q-42 -47 -94 -69t-122 -22q-21 0 -47.5 1t-55.5 3.5t-58.5 5.5t-56.5 7v4z" />
    <glyph glyph-name="E" unicode="E" horiz-adv-x="495" 
d="M226 82q0 -26 5.5 -36t19.5 -10q22 0 58.5 20t71.5 50q29 26 52 51.5t46 59.5l4 -1l-60 -249h-5q-6 10 -12 16.5t-14.5 10.5t-21.5 5t-33 1h-318v4q17 11 28 22.5t18 26.5t9.5 34.5t2.5 46.5v399q0 27 -2.5 46.5t-9.5 34.5t-18 26.5t-28 22.5v4h311q19 0 32.5 1.5t23 5
t16.5 10t14 17.5h5l36 -239l-4 -1q-24 37 -52 68.5t-55 54.5t-52 36.5t-43 13.5q-14 0 -19.5 -9t-5.5 -31v-235h49q31 0 52.5 3t38 11t28.5 21.5t24 34.5h5v-184h-5q-11 24 -22 38.5t-26.5 23t-37.5 11t-55 2.5h-51v-238z" />
    <glyph glyph-name="F" unicode="F" horiz-adv-x="462" 
d="M226 134q0 -27 2.5 -46t9 -33.5t17.5 -26.5t28 -24v-4h-263v4q17 12 28 24t17.5 26.5t9 33.5t2.5 46v400q0 26 -2.5 45t-9 33.5t-17.5 26.5t-28 24v4h309q17 0 28.5 1t20 4.5t15 9.5t13.5 16h4l39 -238l-4 -1q-24 36 -51.5 68t-54 55t-50 36.5t-39.5 13.5
q-13 0 -18.5 -9.5t-5.5 -32.5v-232h46q39 0 59.5 4.5t37.5 18.5q14 10 21.5 19t15.5 25h4v-187h-4q-11 24 -22 39.5t-26.5 24.5t-36 13t-49.5 4h-46v-185z" />
    <glyph glyph-name="G" unicode="G" horiz-adv-x="560" 
d="M541 379q-46 -32 -46 -89v-170q0 -25 7 -36t28 -22v-4q-23 -17 -51.5 -31t-58.5 -24.5t-60.5 -16.5t-55.5 -6q-59 0 -109 26.5t-87.5 72.5t-58.5 108.5t-21 134.5q0 74 23.5 140t63.5 116t93.5 79.5t112.5 29.5q68 0 147 -48l-72 -212l-5 1q-5 36 -15 76.5t-21 69.5
q-28 71 -71 71q-38 0 -55 -49q-17 -45 -24.5 -110.5t-7.5 -154.5q0 -154 27 -234.5t78 -80.5q44 0 44 61v183q0 46 -8 71t-32 48v4h235v-4z" />
    <glyph glyph-name="H" unicode="H" horiz-adv-x="600" 
d="M226 368v-235q0 -26 2 -43.5t8 -31.5t16.5 -26.5t27.5 -27.5v-4h-263v4q34 19 47 47t13 82v400q0 27 -2.5 46t-9 33.5t-17.5 26.5t-28 24v4h260v-4q-17 -16 -27.5 -28.5t-16.5 -26.5t-8 -31.5t-2 -43.5v-122h148v122q0 26 -2 44t-8 32t-16.5 26.5t-27.5 27.5v4h263v-4
q-33 -20 -46.5 -48.5t-13.5 -81.5v-400q0 -52 13.5 -81t46.5 -48v-4h-263v4q16 14 26.5 26.5t16.5 26.5t8.5 32t2.5 44v235h-148z" />
    <glyph glyph-name="I" unicode="I" horiz-adv-x="303" 
d="M282 0h-267v4q34 17 47.5 45.5t13.5 83.5v401q0 27 -2.5 46.5t-9.5 34.5t-18 26t-28 22v4h264v-4q-17 -12 -28 -24t-17.5 -26.5t-9 -33.5t-2.5 -45v-401q0 -26 2.5 -45t9 -33.5t17.5 -26.5t28 -24v-4z" />
    <glyph glyph-name="J" unicode="J" horiz-adv-x="394" 
d="M388 662q-33 -19 -46 -47.5t-13 -81.5v-338q0 -66 -11 -103.5t-38 -64.5q-45 -47 -118 -47q-34 0 -63.5 12t-51.5 33t-34.5 49.5t-12.5 60.5q0 38 20 63t52 25q29 0 48 -19.5t19 -48.5q0 -8 -1 -14.5t-4 -14t-8.5 -17t-14.5 -23.5q-13 -22 -13 -34t10 -21t24 -9
q26 0 37 24t11 80v408q0 53 -13 81.5t-46 47.5v4h267v-5z" />
    <glyph glyph-name="K" unicode="K" horiz-adv-x="572" 
d="M479 135q14 -29 27 -50.5t26.5 -37t28 -26t32.5 -17.5v-4h-257v4q17 17 17 39q0 11 -4 22.5t-16 37.5l-108 225v-195q0 -26 2.5 -44.5t9 -33t17.5 -26.5t28 -25v-4h-266v4q33 18 46.5 46.5t13.5 82.5v401q0 26 -2.5 45.5t-9.5 34t-18 26.5t-28 23v4h264v-4
q-17 -13 -28 -25t-17.5 -26.5t-9 -33t-2.5 -44.5v-164l117 160q14 18 22.5 31t13.5 22.5t6.5 17.5t1.5 17q0 13 -4.5 21t-18.5 24v4h174v-4q-35 -16 -70.5 -49.5t-78.5 -93.5l-57 -76z" />
    <glyph glyph-name="L" unicode="L" horiz-adv-x="473" 
d="M412 -36h-4q-11 22 -25.5 29t-47.5 7h-317v4q17 10 28.5 21t18 26t9.5 35.5t3 47.5v400q0 27 -3 47t-9.5 35t-18 26t-28.5 21v4h268v-4q-33 -18 -46.5 -46.5t-13.5 -82.5v-453q0 -26 5.5 -36t20.5 -10q18 0 50 19.5t70 54.5q13 11 24.5 22t23 24t23.5 27.5t27 33.5l3 -3z
" />
    <glyph glyph-name="M" unicode="M" horiz-adv-x="637" 
d="M260 -16l-113 495l-19 -326q-1 -11 -1.5 -21t-0.5 -13q0 -40 14 -64.5t49 -50.5v-4h-171v4q18 12 30 24t19.5 28.5t11.5 39.5t7 56l22 388q1 8 1 14v11q0 39 -12 61t-42 37v4h196l71 -321l72 321h189v-4q-26 -18 -37 -39.5t-11 -54.5q0 -4 0.5 -15.5t1.5 -22.5l24 -409
q4 -48 16.5 -73.5t41.5 -44.5v-4h-256v4q31 23 42 46t11 62v14q0 8 -2 28l-20 325l-108 -495h-26z" />
    <glyph glyph-name="N" unicode="N" horiz-adv-x="510" 
d="M418 -21l-296 510v-356q0 -49 14.5 -77t52.5 -52v-4h-178v4q19 13 32 27t20.5 31t10.5 39t3 52v360q0 25 -3 45t-10.5 37.5t-20.5 33.5t-32 33v5h175l212 -365v218q0 60 -15 91.5t-52 51.5v4h179v-4q-36 -24 -52 -54.5t-16 -74.5v-555h-24z" />
    <glyph glyph-name="O" unicode="O" horiz-adv-x="559" 
d="M279 652q-39 0 -55 -50q-12 -42 -19 -112.5t-7 -158.5q0 -80 5 -136t17 -104q18 -76 61 -76q37 0 53 53q14 48 20.5 111.5t6.5 148.5q0 45 -1 80t-3.5 64.5t-7 56t-10.5 53.5q-16 70 -60 70zM280 690q39 0 80.5 -22.5t76.5 -62.5q95 -109 95 -274q0 -73 -23 -139.5
t-68 -121.5q-76 -93 -160 -93q-49 0 -95 30t-81 80t-56.5 115t-21.5 135q0 68 20.5 132t58.5 115q38 50 84 78t90 28z" />
    <glyph glyph-name="P" unicode="P" horiz-adv-x="544" 
d="M242 288q63 0 82 25q32 37 32 145q0 85 -24 137t-63 52q-23 0 -33.5 -15t-10.5 -49v-295h17zM225 133q0 -26 2.5 -45.5t9.5 -34t18 -26.5t28 -23v-4h-267v4q34 18 47 46.5t13 82.5v399q0 55 -13 83.5t-47 46.5v4q53 9 107 13.5t107 4.5q37 0 67.5 -3t56 -9t47.5 -16
t42 -24q39 -27 60 -69.5t21 -93.5q0 -66 -34.5 -117t-95.5 -77q-27 -11 -67 -17.5t-85 -6.5h-17v-118z" />
    <glyph glyph-name="Q" unicode="Q" horiz-adv-x="559" 
d="M281 654q-24 0 -38 -18t-24 -62q-9 -40 -14 -103.5t-5 -141.5q0 -84 5.5 -150.5t16.5 -105.5q8 -28 22.5 -43.5t34.5 -15.5q36 0 55 64q13 43 19.5 109.5t6.5 150.5q0 179 -24 259q-9 31 -21.5 44t-33.5 13zM338 -11q2 -67 33 -115.5t88 -72.5q-5 -1 -10 -1h-6
q-24 0 -49.5 6.5t-50.5 18.5t-46 27.5t-36 33.5q-34 42 -49 105q-43 24 -77.5 60t-58.5 80.5t-36.5 96.5t-12.5 108q0 67 21 131t56 113.5t79.5 79.5t92.5 30q50 0 96.5 -29t82 -77.5t57 -111.5t21.5 -132q0 -57 -14 -111.5t-40 -100.5t-62 -82t-79 -57z" />
    <glyph glyph-name="R" unicode="R" horiz-adv-x="556" 
d="M246 298q31 0 52 7.5t33.5 25t17.5 47t5 74.5q0 51 -8.5 95.5t-22.5 67.5q-19 32 -52 32q-26 0 -35.5 -16t-9.5 -60v-273h20zM18 668q47 8 101 12t110 4q78 0 130 -13.5t91 -44.5q33 -26 51.5 -66.5t18.5 -88.5q0 -68 -34.5 -115.5t-102.5 -72.5q20 -60 39.5 -109.5
t41.5 -93t47 -83t56 -80.5q2 -4 4.5 -7.5t4.5 -6.5q-19 1 -45 11.5t-53.5 27t-53.5 38t-45 43.5q-20 21 -41 52t-40.5 64.5t-35 66t-22.5 57.5h-14v-130q0 -54 13 -82.5t47 -46.5v-4h-265v4q17 13 28 25t17 26.5t8.5 32.5t2.5 45v401q0 27 -3 47t-9.5 35t-18 26.5
t-28.5 21.5v4z" />
    <glyph glyph-name="S" unicode="S" horiz-adv-x="495" 
d="M352 479h-4q-12 72 -49.5 115t-87.5 43q-34 0 -56 -21.5t-22 -55.5q0 -19 9 -38t24 -33q17 -14 44 -30t78 -39q26 -12 43.5 -21t30.5 -16.5t23 -15.5t20 -18q27 -27 41.5 -62.5t14.5 -77.5q0 -49 -17.5 -91t-48 -72.5t-72 -48t-89.5 -17.5q-54 0 -105 17t-109 54l98 161
l4 -2q8 -41 22.5 -74.5t34.5 -57.5t43.5 -37.5t49.5 -13.5q18 0 34.5 7.5t29 20t19.5 29.5t7 36q0 22 -10 42.5t-27 35.5q-8 7 -17 14t-21.5 14t-29.5 15.5t-41 19.5q-23 11 -40 20t-30 18t-24 18t-22 20q-55 57 -55 139q0 46 16.5 85t46 67t70 43.5t89.5 15.5q19 0 37 -2
t37.5 -6.5t42.5 -12.5t52 -19z" />
    <glyph glyph-name="T" unicode="T" horiz-adv-x="516" 
d="M391 0h-266v4q17 12 28 23.5t17.5 26t9 33.5t2.5 46v437v19v10q0 4 -0.5 6t-1.5 5q-5 16 -21 16q-11 0 -30.5 -16t-42 -41t-44.5 -55.5t-37 -59.5l-5 1l35 245h5q9 -19 26 -26t55 -7h278q30 0 47.5 8t28.5 25h5l36 -251h-5q-14 26 -34 54.5t-42 55.5q-57 67 -80 67
q-14 0 -19 -12t-5 -44v-437q0 -54 13 -82.5t47 -46.5v-4z" />
    <glyph glyph-name="U" unicode="U" horiz-adv-x="516" 
d="M507 663q-32 -18 -46.5 -49t-14.5 -80l4 -328v-17q0 -32 -1.5 -54t-6 -38.5t-11.5 -30t-19 -27.5q-25 -31 -59 -45t-83 -14q-64 0 -112.5 24.5t-71.5 68.5q-11 20 -16 53.5t-4 75.5l6 332v9q2 45 -13.5 75.5t-47.5 44.5v4h268v-4q-17 -12 -28 -23.5t-18 -26.5t-10 -34
t-3 -45l-5 -357v-1t0.5 -6t1 -15t1.5 -28t9 -34t21 -27.5t30 -18.5t36 -7q27 0 49.5 14t33.5 40q6 14 9 39.5t2 51.5v11l-4 338q-1 52 -16.5 82.5t-48.5 46.5v4h168v-4z" />
    <glyph glyph-name="V" unicode="V" horiz-adv-x="471" 
d="M225 -23l-159 546q-10 33 -18.5 56t-18.5 38.5t-22 25.5t-28 19v5h256v-5q-39 -17 -39 -52q0 -6 0.5 -10.5t2 -11.5t4.5 -17.5t8 -26.5l79 -266l63 228q8 26 12 49.5t4 37.5q0 26 -12 42t-40 27v5h179v-5q-18 -8 -31 -19.5t-24.5 -29.5t-21.5 -44.5t-22 -65.5l-149 -526
h-23z" />
    <glyph glyph-name="W" unicode="W" horiz-adv-x="728" 
d="M249 -23h-22l-162 547q-10 33 -19 56t-19 38.5t-21.5 26t-26.5 18.5v4h248v-4q-34 -27 -34 -59q0 -5 0.5 -9.5t1.5 -10.5t3.5 -14.5t6.5 -22.5l85 -289l64 204l-35 117q-6 19 -11 32.5t-11 22.5t-14 15.5t-20 13.5v4h237v-4q-20 -13 -28.5 -25.5t-8.5 -30.5
q0 -10 1.5 -17.5t7.5 -27.5l80 -271l63 237q4 14 6 23t3 15t1.5 11.5t0.5 11.5q0 28 -11.5 44.5t-40.5 29.5v4h179v-4q-19 -9 -33 -21.5t-25 -31t-21.5 -46.5t-21.5 -68l-136 -519h-20l-120 412z" />
    <glyph glyph-name="X" unicode="X" horiz-adv-x="551" 
d="M468 128q25 -53 48 -81.5t51 -42.5v-4h-267v4q31 19 31 51q0 11 -5 26t-16 38l-68 140l-71 -123q-29 -51 -29 -78q0 -32 25 -54v-4h-160v4q31 19 58 50t54 80l102 171l-110 225q-15 30 -27 51.5t-23.5 37.5t-22.5 26t-23 18v4h258v-4q-32 -17 -32 -47q0 -12 4 -24.5
t14 -34.5l51 -105l35 63q22 39 30.5 60t8.5 38q0 15 -5.5 26t-19.5 24v4h155v-4q-53 -32 -106 -124l-77 -133z" />
    <glyph glyph-name="Y" unicode="Y" horiz-adv-x="475" 
d="M316 133q0 -26 2 -44t8 -32t17 -26t29 -27v-4h-263v4q33 21 45.5 48.5t12.5 80.5v169l-104 256q-11 26 -18.5 42.5t-16 27t-18.5 18t-26 16.5v5h244v-5q-32 -15 -32 -43q0 -19 11 -47l86 -205l64 168q7 20 11.5 39.5t4.5 31.5q0 21 -7 33t-27 23v5h156v-5
q-31 -14 -50.5 -40t-36.5 -74l-92 -246v-169z" />
    <glyph glyph-name="Z" unicode="Z" horiz-adv-x="485" 
d="M214 83q-8 -16 -8 -27q0 -20 23 -20q22 0 51.5 14.5t61.5 39.5t63 58t57 70h5l-65 -252h-4q-5 11 -11.5 17.5t-18.5 10.5t-31.5 5t-50.5 1h-269l253 570q13 32 13 43q0 7 -5.5 12t-13.5 5q-19 0 -44.5 -14t-53.5 -37.5t-55.5 -54.5t-49.5 -66h-5l41 239h5q9 -17 25 -24
q5 -2 8.5 -3.5t9.5 -2t16 -0.5h29h281z" />
    <glyph glyph-name="bracketleft" unicode="[" horiz-adv-x="261" 
d="M195 -147h33v-20h-161v874h161v-20h-33v-834z" />
    <glyph glyph-name="backslash" unicode="\" horiz-adv-x="406" 
d="M88 667l331 -769h-75l-334 769h78z" />
    <glyph glyph-name="bracketright" unicode="]" horiz-adv-x="261" 
d="M33 687v20h161v-874h-161v20h33v834h-33z" />
    <glyph glyph-name="asciicircum" unicode="^" 
d="M468 279l-161 255l-174 -255h-163l287 421h9l264 -421h-62z" />
    <glyph glyph-name="underscore" unicode="_" 
d="M491 -92v-72h-481v72h481z" />
    <glyph glyph-name="grave" unicode="`" 
d="M255 666q17 -57 41.5 -92t63.5 -59h-17q-66 0 -119.5 39.5t-82.5 111.5h114z" />
    <glyph glyph-name="a" unicode="a" horiz-adv-x="419" 
d="M237 261q-24 -10 -40 -21t-26 -25t-14 -32.5t-4 -42.5q0 -38 13 -58.5t37 -20.5q8 0 15 2t19 8v190zM364 124q0 -35 6.5 -50t21.5 -15q4 0 7 0.5t15 4.5q-31 -72 -95 -72q-27 0 -48.5 14t-33.5 40q-26 -28 -51.5 -40.5t-56.5 -12.5q-45 0 -72.5 27t-27.5 70q0 74 74 130
q13 10 23 17t22.5 13.5t31 14.5t48.5 21l9 4v95q0 29 -6.5 40.5t-21.5 11.5q-21 0 -31 -25q-2 -5 -3 -8t-2 -8t-2.5 -13t-3.5 -22q-5 -35 -23 -55t-45 -20q-20 0 -33.5 14t-13.5 34q0 27 18.5 52t49.5 44.5t71.5 31.5t83.5 12q50 0 69.5 -22t19.5 -79v-249z" />
    <glyph glyph-name="b" unicode="b" horiz-adv-x="451" 
d="M186 102q0 -46 9 -64.5t32 -18.5q33 0 52 50.5t19 139.5q0 91 -22 144t-60 53q-7 0 -13 -1.5t-17 -5.5v-297zM186 422q24 26 47.5 38t50.5 12q31 0 57.5 -14t45.5 -39t30 -59.5t11 -74.5q0 -60 -19.5 -116t-54.5 -100q-62 -78 -125 -78q-26 0 -50.5 9.5t-53.5 31.5
l-66 -45v509q0 25 -1.5 42t-5.5 29.5t-11.5 22.5t-19.5 22v4q18 1 41 7t45.5 15t42.5 20.5t32 23.5h4v-260z" />
    <glyph glyph-name="c" unicode="c" horiz-adv-x="344" 
d="M260 288h-4q-15 83 -29 115t-33 32q-27 0 -43 -47.5t-16 -126.5q0 -76 26 -115.5t77 -39.5q33 0 56 16.5t41 52.5h4q-7 -90 -45.5 -138.5t-103.5 -48.5q-36 0 -67 14.5t-53 40t-34.5 61t-12.5 77.5q0 51 15 102.5t43 95.5q60 96 150 96q23 0 45 -5t50 -17z" />
    <glyph glyph-name="d" unicode="d" horiz-adv-x="447" 
d="M264 358q0 45 -9.5 65t-31.5 20q-32 0 -51 -51.5t-19 -141.5q0 -91 22 -141.5t61 -50.5q12 0 28 8v292zM391 145q0 -21 1.5 -35.5t5.5 -25t11 -18.5t18 -17l9 -8l-23 -5q-34 -8 -55.5 -13t-36.5 -9.5t-26.5 -10t-26.5 -14.5h-4v50q-28 -26 -50 -37t-48 -11q-30 0 -56 15
t-45.5 41t-30.5 61t-11 76q0 52 17.5 104t45.5 92.5t64 66t72 25.5q12 0 20 -3t22 -12v36q0 25 -2 43t-7 31.5t-13.5 23t-21.5 18.5v4q97 16 165 69h6v-537z" />
    <glyph glyph-name="e" unicode="e" horiz-adv-x="354" 
d="M222 287q-5 84 -15 122t-29 38q-13 0 -20.5 -11.5t-13.5 -40.5q-7 -31 -9.5 -55t-2.5 -53h90zM132 254q2 -68 29 -106t74 -38q29 0 54 16t42 46h4q-2 -40 -8.5 -66.5t-20.5 -49.5q-20 -32 -51 -50t-66 -18q-36 0 -66.5 16.5t-52.5 45.5t-34.5 69.5t-12.5 88.5
q0 52 13 100.5t34.5 85.5t50 59t58.5 22q36 0 68.5 -25.5t54.5 -70.5q11 -23 18.5 -52t14.5 -73h-203z" />
    <glyph glyph-name="f" unicode="f" horiz-adv-x="252" 
d="M190 120q0 -45 11 -70.5t39 -45.5v-4h-226v4q28 22 38.5 47t10.5 69v292h-52v35h52q1 30 2 49t2.5 32t4 23t6.5 22q14 39 44.5 63t65.5 24q38 0 63.5 -26t25.5 -67q0 -32 -19 -54t-48 -22q-27 0 -43.5 19t-16.5 50q0 5 0.5 7.5t2.5 16.5v4q0 15 -13 15q-11 0 -18.5 -13.5
t-7.5 -33.5q0 -29 17.5 -54.5t46.5 -40.5q12 -6 26.5 -9t46.5 -7v-33h-61v-292z" />
    <glyph glyph-name="g" unicode="g" horiz-adv-x="447" 
d="M264 39q-21 -21 -49.5 -34.5t-51.5 -13.5q-1 -15 -1.5 -23.5t-0.5 -19.5q0 -61 13.5 -95t37.5 -34q14 0 26 9.5t17 24.5t7 36.5t2 61.5v88zM264 301q0 72 -12 103.5t-39 31.5q-61 0 -61 -194q0 -104 22 -144q11 -20 27 -31.5t34 -11.5q8 0 13.5 2t15.5 7v237zM264 479h5
q13 -11 33 -22t42.5 -20t46 -15t44.5 -9v-4q-26 -16 -35 -34.5t-9 -57.5v-340q0 -54 -8 -82.5t-29 -50.5q-23 -25 -64.5 -40t-86.5 -15q-109 0 -179 74l138 129q-32 2 -53.5 13t-41.5 35q-22 26 -33.5 63.5t-11.5 79.5q0 51 16 103t41 93t56.5 67t63.5 26q35 0 65 -39v46z
" />
    <glyph glyph-name="h" unicode="h" horiz-adv-x="467" 
d="M183 406q97 66 154 66q21 0 38 -9.5t25 -25.5q6 -13 8.5 -30t2.5 -45v-242q0 -46 12 -73t40 -43v-4h-217v4q12 10 19.5 20t11.5 22.5t5.5 30.5t1.5 44v199q0 77 -43 76q-28 -1 -58 -17v-261q0 -26 1.5 -43t5 -29t10.5 -21.5t19 -20.5v-4h-213v4q28 20 39 45.5t11 70.5
v374q0 25 -2 43t-6.5 30.5t-13.5 22.5t-22 20v4q23 3 47.5 9.5t47 15.5t41.5 20t32 23h3v-276z" />
    <glyph glyph-name="i" unicode="i" horiz-adv-x="252" 
d="M121 660q33 0 56 -23t23 -56q0 -16 -6.5 -30.5t-17 -25t-24.5 -16.5t-30 -6q-33 0 -56 23t-23 56q0 32 23 55t55 23zM190 120q0 -45 11.5 -71.5t39.5 -44.5v-4h-227v4q14 12 23.5 23t15 24.5t8 30t2.5 38.5v175q0 25 -1.5 42t-6 30t-13 23t-21.5 21v4q32 6 56.5 13
t43.5 15t34 17.5t30 22.5h5v-363z" />
    <glyph glyph-name="j" unicode="j" horiz-adv-x="239" 
d="M121 660q33 0 56 -23t23 -56q0 -16 -6.5 -30.5t-17 -25t-24.5 -16.5t-30 -6q-33 0 -56 23t-23 56q0 32 23 55t55 23zM190 -9q0 -32 -1 -54.5t-4 -38.5t-8.5 -27.5t-13.5 -23.5q-34 -47 -92 -47q-21 0 -39.5 7.5t-32.5 20t-22.5 29.5t-8.5 35q0 25 15.5 41t38.5 16
q20 0 33.5 -10.5t27.5 -35.5q15 -28 21.5 -35.5t17.5 -7.5q16 0 16 19q0 24 -24 49.5t-60 39.5q3 10 5 17.5t2.5 18.5t1 27t0.5 43v224q0 53 -10 77.5t-37 38.5v4q60 9 99.5 24.5t69.5 41.5h5v-493z" />
    <glyph glyph-name="k" unicode="k" horiz-adv-x="450" 
d="M392 93q10 -18 17.5 -30t16 -22t19.5 -18.5t26 -18.5v-4h-225v4q12 10 17.5 18t5.5 19q0 15 -15 45l-71 143v-109q0 -27 1.5 -45t5 -30.5t10.5 -21.5t19 -19v-4h-213v4q28 19 39 45t11 71v374q0 25 -1.5 42.5t-6.5 30.5t-13.5 22.5t-21.5 20.5v4q23 3 46.5 10t45.5 16
t40.5 19.5t32.5 22.5h5v-420l82 91q21 25 21 45q0 23 -21 41v4h172v-4q-25 -12 -44 -23.5t-35.5 -23.5t-32 -27t-33.5 -34l-15 -17z" />
    <glyph glyph-name="l" unicode="l" horiz-adv-x="239" 
d="M183 120q0 -47 12 -73t41 -43v-4h-229v4q14 12 23.5 23.5t15 25t8 29.5t2.5 38v375q0 25 -1.5 42t-6.5 30t-13.5 23t-21.5 21v4q21 2 44.5 8.5t46 15.5t42.5 20t34 23h3v-562z" />
    <glyph glyph-name="m" unicode="m" horiz-adv-x="692" 
d="M190 407q28 20 48.5 32.5t37 20t30.5 10t31 2.5q59 0 72 -65q52 35 86.5 50t63.5 15q52 0 69 -46q5 -12 6.5 -28t1.5 -46v-232q0 -45 12 -72t39 -44v-4h-215v4q12 14 19.5 24t11.5 22t5 28t1 42v213q0 62 -46 62q-12 0 -23 -3.5t-28 -12.5v-259q0 -26 1 -43t5 -29
t11.5 -22t19.5 -22v-4h-201v4q12 13 19.5 23t11 22.5t5 29t1.5 41.5v200q0 23 -1.5 33.5t-6.5 19.5q-5 10 -15.5 15.5t-21.5 5.5q-12 0 -25 -4t-25 -11v-259q0 -25 1.5 -41.5t5 -29t10.5 -22.5t19 -23v-4h-214v4q29 20 40 45.5t11 70.5v177q0 53 -10.5 78t-37.5 38v4
q125 19 170 67h5v-77z" />
    <glyph glyph-name="n" unicode="n" horiz-adv-x="473" 
d="M190 404q96 68 151 68q23 0 41 -10.5t26 -30.5q5 -12 7 -27t2 -44v-240q0 -47 12.5 -74t40.5 -42v-4h-217v4q13 13 20 23t11 22t5 28.5t1 42.5v206q0 37 -10.5 52.5t-35.5 15.5q-23 0 -54 -17v-257q0 -26 1.5 -42.5t5 -29t11 -22.5t19.5 -22v-4h-215v4q28 18 39.5 44.5
t11.5 71.5v178q0 52 -10 77t-36 39v4q126 20 169 66h4v-80z" />
    <glyph glyph-name="o" unicode="o" horiz-adv-x="415" 
d="M207 447q-28 0 -38 -47q-7 -27 -11 -75.5t-4 -99.5q0 -211 53 -211q28 0 40 46q3 12 5 30t4 40t3 45.5t1 46.5q0 118 -12.5 171.5t-40.5 53.5zM207 475q36 0 69.5 -21.5t60 -57t42.5 -80.5t16 -93q0 -45 -16 -87t-42.5 -75t-60 -53t-69.5 -20t-70 20t-60.5 53t-42 76
t-15.5 89q0 47 16 92t42.5 80t60 56t69.5 21z" />
    <glyph glyph-name="p" unicode="p" horiz-adv-x="453" 
d="M190 110q0 -51 9 -69.5t32 -18.5q30 0 44 33q13 29 20 72t7 91q0 43 -6 78t-16.5 60t-26 39t-33.5 14q-7 0 -13 -2t-17 -8v-289zM190 429q28 24 49.5 33.5t48.5 9.5q31 0 57.5 -14.5t45.5 -40.5t29.5 -62.5t10.5 -79.5q0 -52 -16.5 -103t-43.5 -91t-61.5 -65t-69.5 -25
q-29 0 -50 18v-72q0 -47 12.5 -74t40.5 -42v-4h-231v4q28 18 39.5 44.5t11.5 71.5v359q0 24 -2 41.5t-6.5 30.5t-12.5 23t-20 20v4q33 9 55 15.5t39.5 14t33 16.5t35.5 23h5v-55z" />
    <glyph glyph-name="q" unicode="q" horiz-adv-x="443" 
d="M264 361q0 45 -9.5 64t-32.5 19q-19 0 -31.5 -13.5t-20.5 -43.5q-8 -26 -12.5 -62.5t-4.5 -73.5q0 -193 83 -193q8 0 13.5 1.5t14.5 6.5v295zM391 -63q0 -22 2.5 -39t8.5 -30.5t15.5 -24.5t23.5 -22v-4h-224v4q15 16 24.5 28t14.5 24.5t6.5 27t1.5 36.5v103
q-30 -27 -52 -38t-48 -11q-29 0 -55 15t-45 41t-30 61t-11 75q0 53 17.5 104.5t46 92.5t65 66.5t73.5 25.5q23 0 45 -8.5t56 -31.5l65 45v-540z" />
    <glyph glyph-name="r" unicode="r" horiz-adv-x="363" 
d="M190 393q31 53 54.5 73.5t53.5 20.5q32 0 51 -25t19 -68q0 -41 -17 -64t-47 -23q-23 0 -38 15t-15 38v5q0 5 1 12v5q0 19 -11 19q-17 0 -51 -65v-216q0 -46 12 -72.5t40 -43.5v-4h-227v4q15 15 24.5 27t14.5 24.5t7 27.5t2 37v177q0 25 -2 42.5t-6.5 30t-13.5 22.5
t-22 21v4q53 9 98.5 27t68.5 39h4v-90z" />
    <glyph glyph-name="s" unicode="s" horiz-adv-x="355" 
d="M265 312l-4 1q-20 66 -43 96.5t-54 30.5q-19 0 -31 -12.5t-12 -32.5q0 -23 18 -42.5t68 -50.5q37 -23 61.5 -42t39 -37.5t20.5 -38.5t6 -45q0 -68 -43 -109.5t-113 -41.5q-39 0 -76.5 13.5t-87.5 45.5l73 133l4 -1q34 -159 109 -159q24 0 40 16t16 39q0 11 -3 20t-13 19
t-27.5 23t-45.5 32q-23 15 -37 25t-23.5 17.5t-15.5 13.5t-11 13q-31 38 -31 87q0 32 11 59.5t30.5 47.5t45.5 31.5t57 11.5q66 0 138 -37z" />
    <glyph glyph-name="t" unicode="t" horiz-adv-x="282" 
d="M281 412h-88v-264q0 -31 2 -43t8 -21q5 -8 15.5 -13.5t21.5 -5.5q26 0 58 19v-31q-83 -65 -145 -65q-26 0 -45 9.5t-28 26.5q-8 14 -11 32t-3 53v303h-48v25q29 21 51.5 42t40 43t31.5 46.5t26 53.5h26v-175h88v-35z" />
    <glyph glyph-name="u" unicode="u" horiz-adv-x="467" 
d="M410 158q0 -48 10.5 -72.5t37.5 -38.5v-3q-44 -6 -91 -20.5t-80 -32.5h-5v63q-49 -34 -85.5 -50t-64.5 -16q-19 0 -36 8.5t-26 22.5q-5 7 -7.5 14t-4 17.5t-2 26t-0.5 38.5v185q0 25 -2 43t-7 31.5t-13.5 23t-21.5 18.5v4q49 8 87 22.5t80 40.5h4v-335q0 -28 1 -39.5
t6 -20.5q11 -22 38 -22q12 0 25 3.5t30 11.5v219q0 25 -2 42.5t-6.5 31t-13 23.5t-20.5 19v4q31 6 53.5 12t41 13t35 16t34.5 22h5v-325z" />
    <glyph glyph-name="v" unicode="v" horiz-adv-x="398" 
d="M192 -22l-145 368q-14 38 -30 60t-36 33v4h221v-4q-32 -16 -32 -50q0 -13 3 -25.5t12 -34.5l62 -159l55 156q10 28 10 46q0 42 -37 67v4h141v-4q-15 -14 -26.5 -26.5t-20.5 -26.5t-16.5 -30t-14.5 -37l-122 -341h-24z" />
    <glyph glyph-name="w" unicode="w" horiz-adv-x="579" 
d="M204 -22h-26l-127 349q-16 46 -31.5 70.5t-38.5 41.5v4h201v-4q-19 -22 -19 -42q0 -19 15 -62l57 -160l42 122l-26 78q-8 26 -17.5 41t-23.5 23v4h200v-4q-28 -19 -28 -51q0 -10 3 -24t10 -38l43 -139l43 135q10 30 10 51q0 22 -8 37t-28 29v4h143v-4q-29 -26 -48 -55.5
t-32 -70.5l-115 -335h-24l-84 262z" />
    <glyph glyph-name="x" unicode="x" horiz-adv-x="418" 
d="M338 104q11 -20 20.5 -35t20 -26.5t23 -20.5t27.5 -17v-5h-232v5q25 15 25 38q0 18 -15 47l-36 68l-37 -60q-11 -17 -14.5 -26.5t-3.5 -20.5q0 -28 27 -46v-5h-147v5q28 14 51.5 37t46.5 59l59 92l-88 167q-17 33 -30.5 49t-35.5 30v4h216v-4q-12 -10 -17 -18.5t-5 -21.5
q0 -17 17 -51l27 -49l29 46q11 17 15 28t4 23q0 13 -5.5 22.5t-20.5 20.5v4h136v-4q-15 -11 -26.5 -20.5t-21.5 -20.5t-19.5 -24t-21.5 -30l-51 -80z" />
    <glyph glyph-name="y" unicode="y" horiz-adv-x="412" 
d="M65 332q-9 23 -16.5 39.5t-15.5 29t-17.5 21.5t-22.5 17v4h221v-4q-32 -17 -32 -49q0 -8 3.5 -21.5t8.5 -27.5l68 -180l49 160q6 19 8 29t2 20q0 21 -8.5 37t-28.5 32v4h146v-4q-34 -27 -55 -61.5t-37 -90.5l-108 -343q-7 -22 -12.5 -37.5t-11 -26.5t-12 -20t-14.5 -18
q-38 -42 -91 -42q-34 0 -54.5 18.5t-20.5 47.5q0 27 18 45t44 18q13 0 24 -4t25 -15t20 -14.5t13 -3.5q10 0 17.5 10.5t15.5 35.5l11 34z" />
    <glyph glyph-name="z" unicode="z" horiz-adv-x="391" 
d="M182 65q-5 -11 -6.5 -14t-1.5 -8q0 -15 17 -15q13 0 32.5 9.5t43 26.5t50 40.5t52.5 52.5l4 -1l-43 -190h-4q-6 20 -21.5 27t-54.5 7h-239l193 373q9 19 9 26q0 16 -16 16q-13 0 -31.5 -10.5t-39 -28t-41 -40.5t-37.5 -48l-4 1l49 186h5q4 -10 9.5 -16.5t15 -10
t23.5 -4.5t36 -1h196z" />
    <glyph glyph-name="braceleft" unicode="{" horiz-adv-x="385" 
d="M20 296q47 3 65 21.5t18 65.5v23q0 13 -1 24l-1 68q0 43 3 75t10.5 54.5t18.5 37.5t28 25q10 6 19 9.5t24 5.5t40.5 2.5t67.5 1.5l20 1v-27q-38 -2 -56 -7.5t-32 -20.5q-9 -10 -14 -19.5t-8 -24.5t-4 -38t-1 -59v-64q0 -36 -0.5 -57.5t-3.5 -34.5t-9 -21t-16 -18
q-14 -14 -31.5 -21t-45.5 -12v-3q71 -11 95 -63q5 -13 7.5 -29.5t2.5 -45.5v-106q-2 -56 2.5 -91.5t17 -56t36 -28t60.5 -7.5v-27q-44 1 -69.5 1.5t-41 1.5t-24 2.5t-17.5 4.5q-42 13 -61.5 48t-19.5 96v12v18q0 14 0.5 39.5t1.5 72.5q1 26 1 43v22q0 42 -18.5 60.5
t-63.5 21.5v24z" />
    <glyph glyph-name="bar" unicode="|" 
d="M298 667v-834h-96v834h96z" />
    <glyph glyph-name="braceright" unicode="}" horiz-adv-x="385" 
d="M332 272q-45 -3 -63.5 -21.5t-18.5 -60.5v-7v-19q0 -14 0.5 -42.5t1.5 -81.5q1 -20 1 -35v-22q0 -66 -23 -102t-73 -46q-8 -2 -16 -2.5t-22 -1.5t-37 -1.5t-62 -0.5v27q49 -1 73 13t35 49q5 15 6.5 33t1.5 44v114q0 36 0.5 57.5t3.5 35.5t8.5 23.5t15.5 21.5q27 29 77 36
v3q-28 5 -45.5 12t-31.5 21q-10 10 -16 18t-9 21t-3.5 34.5t-0.5 57.5v64q0 36 -1 59t-4 38t-8 24.5t-14 19.5q-14 15 -32 20.5t-56 7.5v27l20 -1h46q29 -1 49.5 -3t35 -6.5t25.5 -12t20 -18.5q19 -22 27 -61.5t8 -109.5l-1 -68q-1 -11 -1 -24v-23q0 -47 18 -65.5t65 -21.5
v-24z" />
    <glyph glyph-name="asciitilde" unicode="~" horiz-adv-x="667" 
d="M531 720q-27 -53 -61.5 -81t-72.5 -28q-8 0 -15.5 1t-18 4t-27.5 8.5t-44 15.5q-14 5 -29 8t-28 3q-20 0 -34.5 -7.5t-34.5 -30.5l-9 -9l-21 13q32 58 63.5 84.5t68.5 26.5q15 0 31.5 -4t50.5 -16q30 -11 47.5 -15t31.5 -4q44 0 80 45z" />
    <glyph glyph-name="uni00A0" unicode="&#xa0;" horiz-adv-x="300" 
 />
    <glyph glyph-name="exclamdown" unicode="&#xa1;" horiz-adv-x="244" 
d="M131 489l61 -343q4 -26 6.5 -40t4 -22t1.5 -12v-9q0 -33 -23.5 -55.5t-58.5 -22.5t-58.5 22.5t-23.5 57.5v10t1.5 12t3.5 22.5t7 41.5l57 338h22zM122 681q32 0 54.5 -22.5t22.5 -54.5t-22.5 -54.5t-54.5 -22.5t-54.5 22.5t-22.5 54.5t22.5 54.5t54.5 22.5z" />
    <glyph glyph-name="cent" unicode="&#xa2;" horiz-adv-x="429" 
d="M265 578q18 1 43 -5t53 -18l-67 -164h-4q-15 82 -28.5 114t-33.5 32q-27 0 -43 -47.5t-16 -125.5q0 -154 103 -154q33 0 56 16t41 52h4q-11 -152 -112 -181v-63h-65v60q-67 15 -103 64.5t-36 126.5q0 43 11 86t30 80.5t44 66.5t54 44v67h65v-51h4z" />
    <glyph glyph-name="sterling" unicode="&#xa3;" horiz-adv-x="498" 
d="M243 308q-11 -45 -36 -97.5t-58 -103.5q71 -1 118 2.5t81 16t60.5 36t57.5 62.5l5 -2l-62 -255h-4q-6 10 -12 16.5t-13.5 10.5t-17.5 5t-26 1h-295q39 68 58 127.5t19 117.5q0 19 -1.5 31.5t-6.5 31.5h-69v43h55q-18 45 -24.5 72t-6.5 55q0 46 18 88.5t48 69.5
q58 50 156 50q44 0 83 -8t88 -27l-85 -172l-4 3q-23 80 -55.5 121.5t-72.5 41.5q-23 0 -39.5 -15.5t-16.5 -38.5q0 -14 5.5 -31t22.5 -53q11 -23 18 -42t11 -37t5.5 -36.5t1.5 -40.5h97v-43h-103z" />
    <glyph glyph-name="currency" unicode="&#xa4;" horiz-adv-x="498" 
d="M248 536q-39 0 -55 -44q-9 -26 -15 -71t-6 -93q0 -56 7.5 -101.5t19.5 -67.5q17 -30 49 -30q42 0 57 42q9 24 14.5 67t5.5 88q0 58 -7.5 107.5t-19.5 71.5q-16 31 -50 31zM490 149l-57 -57l-50 51q-68 -53 -135 -53q-33 0 -67.5 13t-66.5 39l-50 -50l-57 57l54 53
q-38 60 -38 125q0 68 41 135l-57 56l57 57l52 -53q66 55 133 55q66 0 131 -56l53 54l57 -57l-58 -57q42 -66 42 -133q0 -64 -38 -125z" />
    <glyph glyph-name="yen" unicode="&#xa5;" horiz-adv-x="475" 
d="M426 277v-40h-110v-103q0 -26 2 -44t8 -32.5t17 -26.5t29 -27v-4h-263v4q33 21 45.5 48.5t12.5 81.5v103h-114v40h114v25l-14 35h-100v40h84l-74 181q-11 26 -18.5 42.5t-16 27t-18.5 18t-26 16.5v5h244v-5q-32 -15 -32 -43q0 -19 11 -47l86 -205l64 168q7 19 11.5 39
t4.5 32q0 21 -7 33t-27 23v5h156v-5q-31 -14 -50.5 -40t-36.5 -74l-64 -171h82v-40h-97l-13 -35v-25h110z" />
    <glyph glyph-name="brokenbar" unicode="&#xa6;" 
d="M298 153v-320h-96v320h96zM298 667v-353h-96v353h96z" />
    <glyph glyph-name="section" unicode="&#xa7;" horiz-adv-x="585" 
d="M418 122q28 38 28 82q0 48 -42 79q-10 7 -20 13.5t-23.5 13t-33.5 15.5t-50 21q-21 9 -37.5 16t-29.5 13.5t-24 12.5t-22 13q-36 -36 -36 -83q0 -20 10.5 -40t27.5 -34q9 -8 20.5 -14.5t27.5 -15t38.5 -18.5t54.5 -23q28 -12 44.5 -19t28 -12t19.5 -9.5t19 -10.5z
M386 514q-11 69 -45 109.5t-80 40.5q-35 0 -60 -23.5t-25 -55.5q0 -16 10.5 -35t26.5 -32q9 -7 20 -14t26.5 -14.5t38 -17.5t54.5 -23q30 -12 49.5 -20.5t34 -15.5t25 -14l22.5 -15q66 -47 66 -124q0 -51 -24 -86.5t-81 -69.5q33 -26 47.5 -53.5t14.5 -62.5q0 -87 -93 -133
q-54 -26 -113 -26q-69 0 -132.5 28.5t-114.5 83.5l101 73h8q7 -36 21 -65.5t32.5 -51t41.5 -33t47 -11.5q19 0 36 7t30 18.5t20.5 27t7.5 32.5q0 18 -11.5 37.5t-30.5 33.5q-9 7 -18.5 13t-23 12.5t-33 15t-49.5 20.5q-27 11 -46.5 20t-34.5 17t-27.5 15.5t-24.5 16.5
q-62 46 -62 125q0 53 23.5 89t77.5 66q-31 26 -45 54.5t-14 63.5q0 88 105 130q25 10 54 15.5t58 5.5q27 0 50.5 -5t46.5 -16.5t47.5 -30t52.5 -45.5l-99 -77h-8z" />
    <glyph glyph-name="dieresis" unicode="&#xa8;" 
d="M343 648q26 0 44 -17.5t18 -43.5t-18 -44.5t-44 -18.5t-44 18t-18 44t18 44t44 18zM157 648q26 0 44 -17.5t18 -43.5t-18 -44.5t-44 -18.5t-44 18t-18 44t18 44t44 18z" />
    <glyph glyph-name="copyright" unicode="&#xa9;" horiz-adv-x="760" 
d="M380 617q-59 0 -110.5 -22.5t-90 -60.5t-61 -90t-22.5 -110t22 -109.5t60.5 -90t89.5 -61t108 -22.5q60 0 112.5 22t91 60.5t61 90t22.5 111.5q0 58 -22.5 109.5t-60.5 89.5t-90 60.5t-110 22.5zM380 680q72 0 135 -27t110 -74t74 -110t27 -135q0 -73 -27.5 -136
t-74.5 -110t-111.5 -74t-137.5 -27q-70 0 -132.5 27.5t-109 74.5t-73.5 110.5t-27 134.5q0 72 27 135t74.5 110t110.5 74t135 27zM425 392h-8q-3 59 -15.5 90.5t-33.5 31.5q-23 0 -36.5 -40.5t-13.5 -109.5q0 -74 21.5 -113.5t60.5 -39.5q26 0 46.5 21t30.5 59h8q1 -8 1 -13
v-10q0 -69 -30 -108t-82 -39q-65 0 -102.5 47t-37.5 128q0 49 13.5 98t38.5 88q44 70 118 70q17 0 32 -4t44 -16z" />
    <glyph glyph-name="ordfeminine" unicode="&#xaa;" horiz-adv-x="333" 
d="M182 513q-30 -13 -41.5 -30.5t-11.5 -49.5q0 -24 8.5 -37.5t23.5 -13.5q5 0 9.5 1t11.5 5v125zM327 386q-27 -61 -79 -61q-20 0 -37 9.5t-26 25.5q-34 -34 -79 -34q-35 0 -57 20.5t-22 52.5q0 60 71 104q11 7 32 17t52 23v65q0 18 -3.5 25t-12.5 7q-11 0 -16 -9.5
t-10 -40.5q-5 -26 -19.5 -41t-36.5 -15q-17 0 -28.5 10.5t-11.5 27.5q0 20 14.5 38.5t38 32.5t54.5 22.5t64 8.5q40 0 55.5 -16.5t15.5 -58.5v-176q0 -23 4 -33t12 -10q2 0 8 2z" />
    <glyph glyph-name="guillemotleft" unicode="&#xab;" horiz-adv-x="331" 
d="M146 225q29 36 48 61.5t33.5 47.5t26 44t24.5 51q0 -24 -3.5 -51.5t-9.5 -55t-13.5 -53t-16.5 -44.5q40 -92 43 -198q-11 25 -23 46.5t-27 44t-35 48.5t-47 59zM27 223q30 39 50.5 67.5t35 51t25.5 42.5t21 42q-2 -57 -11.5 -103t-31.5 -98q10 -24 17.5 -46.5t13 -46
t8 -49.5t4.5 -59q-11 23 -22 44t-26 43.5t-35 49t-49 62.5z" />
    <glyph glyph-name="logicalnot" unicode="&#xac;" 
d="M313 200h-283v67h440v-267h-157v200z" />
    <glyph glyph-name="uni00AD" unicode="&#xad;" horiz-adv-x="200" 
d="M0 197v73h200v-73h-200z" />
    <glyph glyph-name="registered" unicode="&#xae;" horiz-adv-x="760" 
d="M361 319q36 0 48.5 18t12.5 70q0 55 -12 84.5t-35 29.5q-14 0 -18.5 -8.5t-4.5 -32.5v-161h9zM221 540q29 5 61.5 7.5t66.5 2.5q88 0 133.5 -33t45.5 -98q0 -83 -81 -114q22 -66 45.5 -114.5t52.5 -86.5q57 42 87.5 101t30.5 129q0 58 -22.5 110t-61 90t-90 60.5
t-110.5 22.5t-110.5 -22.5t-89.5 -60.5t-60.5 -90t-22.5 -110q0 -59 22.5 -110.5t60.5 -90t89.5 -61t110.5 -22.5q38 0 71.5 9t68.5 28q-51 23 -94 76.5t-70 127.5h-3v-74q0 -32 8 -48.5t28 -27.5v-8h-166v7q22 16 28 30.5t6 46.5v240q0 33 -6.5 47.5t-28.5 28.5v7zM379 680
q72 0 135 -27t110.5 -74t74.5 -110t27 -135q0 -73 -27 -136t-74.5 -110t-111.5 -74t-138 -27q-70 0 -132.5 27.5t-109 74.5t-73.5 110.5t-27 134.5q0 72 27 135t74 110t110 74t135 27z" />
    <glyph glyph-name="macron" unicode="&#xaf;" 
d="M114 569v66h272v-66h-272z" />
    <glyph glyph-name="macron" unicode="&#x2c9;" 
d="M114 569v66h272v-66h-272z" />
    <glyph glyph-name="degree" unicode="&#xb0;" horiz-adv-x="280" 
d="M140 621q-18 0 -31 -12.5t-13 -30.5q0 -19 12.5 -31.5t31.5 -12.5q18 0 30.5 13t12.5 31t-12.5 30.5t-30.5 12.5zM140 680q21 0 39.5 -8t32.5 -22t22 -32.5t8 -39.5t-8 -40t-22 -33t-32.5 -22t-39.5 -8q-44 0 -73.5 30t-29.5 74q0 21 8 39t22.5 32t33 22t39.5 8z" />
    <glyph glyph-name="plusminus" unicode="&#xb1;" horiz-adv-x="333" 
d="M15 64v80h304v-80h-304zM319 384v-80h-112v-112h-80v112h-112v80h112v112h80v-112h112z" />
    <glyph glyph-name="uni00B2" unicode="&#xb2;" horiz-adv-x="347" 
d="M35 274q30 36 54.5 73t42 70.5t27 63t9.5 50.5q0 29 -16.5 46.5t-42.5 17.5q-17 0 -30 -8t-37 -31q10 57 43.5 89.5t84.5 32.5q47 0 76.5 -29.5t29.5 -76.5q0 -32 -20 -70.5t-62 -88.5q-6 -7 -16 -18.5t-20.5 -23t-20 -21.5t-13.5 -14q59 -1 96.5 15.5t60.5 51.5h9
l-28 -159h-8q-7 14 -17.5 18.5t-38.5 4.5h-163v7z" />
    <glyph glyph-name="uni00B3" unicode="&#xb3;" horiz-adv-x="347" 
d="M39 581q11 43 44.5 70t77.5 27q21 0 39.5 -7.5t33 -20t22.5 -29t8 -35.5q0 -29 -16 -50.5t-55 -46.5q42 -8 66 -34.5t24 -66.5q0 -30 -14.5 -56t-40.5 -44.5t-62 -29t-79 -10.5q-19 0 -30.5 2t-30.5 7q41 11 59.5 18t35.5 19q52 37 52 92q0 20 -8.5 37t-23.5 26
q-8 5 -16.5 7.5t-31.5 10.5q4 2 7.5 5t8.5 5q19 12 31 21.5t19 18t9.5 17.5t2.5 20q0 23 -17.5 39.5t-43.5 16.5q-13 0 -24 -4t-31 -15z" />
    <glyph glyph-name="acute" unicode="&#xb4;" 
d="M360 666q-29 -72 -82.5 -111.5t-119.5 -39.5h-17q38 24 63 59t42 92h114z" />
    <glyph glyph-name="mu" unicode="&#xb5;" horiz-adv-x="478" 
d="M501 34l-125 -45q-2 -1 -6 -1q-9 0 -19 5t-16 13q-3 4 -5 7.5t-4 9t-5.5 14t-7.5 22.5q-21 -23 -37 -37t-30 -22.5t-28 -11.5t-32 -3q-42 0 -66 18.5t-43 65.5v-17q0 -15 0.5 -26.5t3.5 -25.5t9 -34.5t16 -53.5q11 -36 11 -51q0 -24 -17 -40t-44 -16q-28 0 -45.5 15.5
t-17.5 41.5q0 11 2.5 28t6.5 37q7 33 12.5 72.5t9.5 81.5t6.5 84t2.5 80v212h128v-287q0 -39 4 -62.5t12 -37.5q6 -11 19 -18t27 -7q21 0 39.5 12.5t42.5 43.5v356h127v-326q0 -50 8 -66.5t33 -16.5q7 0 13 1.5t15 4.5v-20z" />
    <glyph glyph-name="mu" unicode="&#x3bc;" horiz-adv-x="478" 
d="M501 34l-125 -45q-2 -1 -6 -1q-9 0 -19 5t-16 13q-3 4 -5 7.5t-4 9t-5.5 14t-7.5 22.5q-21 -23 -37 -37t-30 -22.5t-28 -11.5t-32 -3q-42 0 -66 18.5t-43 65.5v-17q0 -15 0.5 -26.5t3.5 -25.5t9 -34.5t16 -53.5q11 -36 11 -51q0 -24 -17 -40t-44 -16q-28 0 -45.5 15.5
t-17.5 41.5q0 11 2.5 28t6.5 37q7 33 12.5 72.5t9.5 81.5t6.5 84t2.5 80v212h128v-287q0 -39 4 -62.5t12 -37.5q6 -11 19 -18t27 -7q21 0 39.5 12.5t42.5 43.5v356h127v-326q0 -50 8 -66.5t33 -16.5q7 0 13 1.5t15 4.5v-20z" />
    <glyph glyph-name="paragraph" unicode="&#xb6;" horiz-adv-x="475" 
d="M205 280q-38 1 -69.5 15.5t-54 40t-34.5 60.5t-12 78q0 51 18 91t53 67q34 26 76.5 37.5t108.5 11.5q42 0 81.5 -3.5t81.5 -10.5v-12q-25 -12 -35 -31t-10 -54v-634q0 -38 10 -58t35 -32v-6h-129v798h-34v-798h-130v6q26 16 35 34.5t9 55.5v344z" />
    <glyph glyph-name="periodcentered" unicode="&#xb7;" horiz-adv-x="547" 
d="M274 316q32 0 54 -22.5t22 -55.5q0 -31 -22 -53t-54 -22t-54.5 22t-22.5 54t22.5 54.5t54.5 22.5z" />
    <glyph glyph-name="cedilla" unicode="&#xb8;" 
d="M187 -138l5 -2q3 -29 11.5 -41.5t25.5 -12.5q19 0 32 21t13 50q0 22 -9 34.5t-24 12.5q-16 0 -28 -19l-6 3l42 92h33l-24 -53q5 1 8 1h7q28 0 44 -16t16 -44q0 -21 -8.5 -41t-22 -36t-31.5 -25.5t-36 -9.5q-20 0 -35.5 9.5t-32.5 32.5z" />
    <glyph glyph-name="uni00B9" unicode="&#xb9;" horiz-adv-x="347" 
d="M227 349q0 -31 7.5 -46.5t28.5 -28.5v-7h-172v7q21 14 28.5 29t7.5 46v178q0 28 -7 37.5t-29 14.5v7q42 21 73 44.5t54 49.5h9v-331z" />
    <glyph glyph-name="ordmasculine" unicode="&#xba;" horiz-adv-x="329" 
d="M165 656q-35 0 -35 -152q0 -146 34 -146q35 0 35 143q0 155 -34 155zM165 684q27 0 53 -15.5t46.5 -41t32.5 -58.5t12 -67q0 -32 -12.5 -62.5t-32.5 -54.5t-46 -38.5t-54 -14.5t-54 14.5t-46 38.5t-32 55t-12 64q0 34 12 66.5t32.5 57.5t46.5 40.5t54 15.5z" />
    <glyph glyph-name="guillemotright" unicode="&#xbb;" horiz-adv-x="331" 
d="M185 224q-29 -36 -48.5 -61.5t-33.5 -47t-25.5 -43.5t-24.5 -51q0 24 3.5 51.5t9.5 55t13.5 52.5t15.5 44q-20 48 -30.5 97t-11.5 101q11 -24 22.5 -45.5t27 -44.5t35.5 -49t47 -59zM304 226q-30 -39 -50.5 -67t-35.5 -50.5t-25.5 -42.5t-20.5 -42q2 57 11.5 102.5
t31.5 97.5q-11 25 -18.5 47.5t-12.5 46t-8 49.5t-4 59q10 -24 21.5 -44.5t26.5 -43t35 -49.5t49 -63z" />
    <glyph glyph-name="onequarter" unicode="&#xbc;" horiz-adv-x="712" 
d="M693 106h-63v-24q0 -15 1 -25.5t4.5 -18t10.5 -15t18 -16.5v-7h-166v7q18 11 25 27.5t7 47.5v24h-141v7q20 29 37.5 66.5t31 77t21 77t7.5 66.5h130q-25 -75 -66.5 -140.5t-101.5 -121.5h82v71q29 15 54.5 41t36.5 50h9v-162h63v-32zM173 -16h-34l401 699h33zM227 349
q0 -31 7.5 -46.5t28.5 -28.5v-7h-172v7q21 14 28.5 29t7.5 46v178q0 28 -7 37.5t-29 14.5v7q42 21 73 44.5t54 49.5h9v-331z" />
    <glyph glyph-name="onehalf" unicode="&#xbd;" horiz-adv-x="712" 
d="M400 7q30 36 54.5 73t42 70.5t27 63t9.5 50.5q0 29 -16.5 46.5t-42.5 17.5q-17 0 -30 -7.5t-37 -31.5q10 57 43.5 89.5t84.5 32.5q47 0 76.5 -29.5t29.5 -76.5q0 -32 -20 -70.5t-62 -88.5q-6 -7 -16 -18.5t-20.5 -23t-20 -21.5t-13.5 -14q59 -1 96.5 15.5t60.5 51.5h9
l-28 -158h-8q-7 14 -17.5 18t-38.5 4h-163v7zM173 -16h-34l401 699h33zM227 349q0 -31 7.5 -46.5t28.5 -28.5v-7h-172v7q21 14 28.5 29t7.5 46v178q0 28 -7 37.5t-29 14.5v7q42 21 73 44.5t54 49.5h9v-331z" />
    <glyph glyph-name="threequarters" unicode="&#xbe;" horiz-adv-x="712" 
d="M693 106h-63v-24q0 -15 1 -25.5t4.5 -18t10.5 -15t18 -16.5v-7h-167v7q19 11 26 27.5t7 47.5v24h-142v7q20 29 37.5 66.5t31 77t21 77t7.5 66.5h131q-26 -77 -66 -139.5t-103 -122.5h83v71q29 15 54.5 41t36.5 50h9v-162h63v-32zM173 -16h-35l402 699h32zM39 581
q11 43 44.5 70t77.5 27q21 0 39.5 -7.5t33 -20t22.5 -29t8 -35.5q0 -29 -16 -50.5t-55 -46.5q42 -8 66 -34.5t24 -66.5q0 -30 -14.5 -56t-40.5 -44.5t-62 -29t-79 -10.5q-19 0 -30.5 2t-30.5 7q41 11 59.5 18t35.5 19q52 37 52 92q0 20 -8.5 37t-23.5 26q-8 5 -16.5 7.5
t-31.5 10.5q4 2 7.5 5t8.5 5q19 12 31 21.5t19 18t9.5 17.5t2.5 20q0 23 -17.5 39.5t-43.5 16.5q-13 0 -24 -4t-31 -15z" />
    <glyph glyph-name="questiondown" unicode="&#xbf;" horiz-adv-x="454" 
d="M289 496q13 -26 18.5 -52.5t5.5 -58.5q0 -64 -30 -116q-6 -10 -11.5 -18t-13.5 -17.5t-22 -23t-36 -35.5q-31 -30 -44.5 -52.5t-13.5 -42.5q0 -22 15 -36.5t38 -14.5q24 0 46.5 13t40.5 36t30.5 54t17.5 67l4 3l90 -165q-44 -26 -93.5 -39t-100.5 -13q-42 0 -78.5 14
t-63.5 38.5t-42.5 58t-15.5 72.5q0 65 51 124q14 16 29.5 30t50.5 40q28 22 47 39t30.5 32t17 30t7.5 33h26zM270 681q32 0 54.5 -22.5t22.5 -54.5t-22.5 -54.5t-54.5 -22.5t-54.5 22.5t-22.5 54.5t22.5 54.5t54.5 22.5z" />
    <glyph glyph-name="Agrave" unicode="&#xc0;" 
d="M201 410l-69 -216h136zM447 111q13 -42 30 -66.5t45 -40.5v-4h-257v4q21 11 29.5 24t8.5 36q0 11 -2.5 24.5t-8.5 31.5l-10 33h-162q-11 -32 -15.5 -51.5t-4.5 -33.5q0 -23 10.5 -38t33.5 -26v-4h-163v4q35 23 55.5 56t39.5 93l166 532h23zM222 879q17 -57 41.5 -92
t63.5 -59h-17q-66 0 -119.5 39.5t-82.5 111.5h114z" />
    <glyph glyph-name="Aacute" unicode="&#xc1;" 
d="M201 410l-69 -216h136zM447 111q13 -42 30 -66.5t45 -40.5v-4h-257v4q21 11 29.5 24t8.5 36q0 11 -2.5 24.5t-8.5 31.5l-10 33h-162q-11 -32 -15.5 -51.5t-4.5 -33.5q0 -23 10.5 -38t33.5 -26v-4h-163v4q35 23 55.5 56t39.5 93l166 532h23zM393 879q-29 -72 -82.5 -111.5
t-119.5 -39.5h-17q38 24 63 59t42 92h114z" />
    <glyph glyph-name="Acircumflex" unicode="&#xc2;" 
d="M201 410l-69 -216h136zM447 111q13 -42 30 -66.5t45 -40.5v-4h-257v4q21 11 29.5 24t8.5 36q0 11 -2.5 24.5t-8.5 31.5l-10 33h-162q-11 -32 -15.5 -51.5t-4.5 -33.5q0 -23 10.5 -38t33.5 -26v-4h-163v4q35 23 55.5 56t39.5 93l166 532h23zM252 776q-67 -41 -151 -41h-8
t-12 1q23 10 47.5 26.5t47 36.5t42 43t34.5 46q30 -47 74.5 -88t91.5 -64q-8 -1 -14 -1h-9q-40 0 -73 9.5t-70 31.5z" />
    <glyph glyph-name="Atilde" unicode="&#xc3;" 
d="M201 410l-69 -216h136zM447 111q13 -42 30 -66.5t45 -40.5v-4h-257v4q21 11 29.5 24t8.5 36q0 11 -2.5 24.5t-8.5 31.5l-10 33h-162q-11 -32 -15.5 -51.5t-4.5 -33.5q0 -23 10.5 -38t33.5 -26v-4h-163v4q35 23 55.5 56t39.5 93l166 532h23zM422 847q-19 -50 -55.5 -79
t-81.5 -29q-9 0 -16.5 0.5t-16 3t-19.5 6.5t-27 10q-21 10 -46 10q-21 0 -38.5 -7.5t-43.5 -27.5q7 22 22 42t34.5 35t41 23.5t42.5 8.5q8 0 15 -0.5t15 -2.5t18.5 -5.5t25.5 -9.5q18 -7 30.5 -9.5t24.5 -2.5q44 0 75 34z" />
    <glyph glyph-name="Adieresis" unicode="&#xc4;" 
d="M201 410l-69 -216h136zM447 111q13 -42 30 -66.5t45 -40.5v-4h-257v4q21 11 29.5 24t8.5 36q0 11 -2.5 24.5t-8.5 31.5l-10 33h-162q-11 -32 -15.5 -51.5t-4.5 -33.5q0 -23 10.5 -38t33.5 -26v-4h-163v4q35 23 55.5 56t39.5 93l166 532h23zM322 853q26 0 44 -17.5
t18 -43.5t-18 -44.5t-44 -18.5t-44 18t-18 44t18 44t44 18zM136 853q26 0 44 -17.5t18 -43.5t-18 -44.5t-44 -18.5t-44 18t-18 44t18 44t44 18z" />
    <glyph glyph-name="Aring" unicode="&#xc5;" 
d="M201 410l-69 -216h136zM447 111q13 -42 30 -66.5t45 -40.5v-4h-257v4q21 11 29.5 24t8.5 36q0 11 -2.5 24.5t-8.5 31.5l-10 33h-162q-11 -32 -15.5 -51.5t-4.5 -33.5q0 -23 10.5 -38t33.5 -26v-4h-163v4q35 23 55.5 56t39.5 93l166 532h23zM252 816q-17 0 -29.5 -12
t-12.5 -29t12 -29.5t30 -12.5q17 0 29 12.5t12 29.5t-12 29t-29 12zM252 863q18 0 34 -7t28 -19t19 -28t7 -34t-7 -34.5t-19 -28.5t-28 -19t-34 -7q-38 0 -63.5 26t-25.5 64q0 18 7 33.5t19 27.5t28.5 19t34.5 7z" />
    <glyph glyph-name="AE" unicode="&#xc6;" horiz-adv-x="777" 
d="M356 582l-106 -222h106v222zM505 64q0 -30 29 -30q23 0 56.5 18.5t70.5 50.5q30 26 52 51.5t47 63.5h4l-60 -250h-4q-5 10 -10.5 16.5t-13.5 10t-20.5 4.5t-31.5 1h-332v4q35 14 49.5 43t14.5 86v186h-123l-87 -181q-23 -49 -23 -77q0 -41 52 -57v-4h-194v4q19 8 34 18
t28.5 25.5t27 37.5t29.5 54l231 491q-6 12 -13 19t-21 14v4h318q19 0 32.5 1.5t22.5 4.5t15.5 9t11.5 15l4 1l38 -243l-4 -1q-18 31 -45 63t-55.5 57.5t-55.5 41.5t-44 16t-23.5 -10t-6.5 -33v-229h41q27 0 44 1t29.5 3t22 6.5t20.5 12.5q16 10 24 19t14 24h4v-183h-4
q-10 39 -45 59q-15 9 -41 13t-69 4h-40v-255z" />
    <glyph glyph-name="Ccedilla" unicode="&#xc7;" horiz-adv-x="455" 
d="M250 -62q7 2 10 2h9q31 0 48.5 -17.5t17.5 -48.5q0 -23 -9.5 -45.5t-24.5 -40t-34.5 -28t-39.5 -10.5q-41 0 -74 46l22 49l5 -2q3 -32 12.5 -46t28.5 -14q20 0 34.5 23t14.5 55q0 24 -9.5 38t-26.5 14t-30 -20l-7 3l39 85q-47 3 -84.5 25t-63.5 59t-40.5 87.5
t-14.5 112.5q0 81 22.5 162t63.5 146q70 114 193 114q13 0 25 -1.5t25.5 -5t30 -9.5t37.5 -15l-88 -225h-5q-4 97 -26.5 150t-58.5 53q-23 0 -39.5 -18t-28.5 -58q-11 -35 -16.5 -81.5t-5.5 -97.5q0 -125 37 -192.5t106 -67.5q45 0 80.5 36t51.5 97h4q1 -11 1 -20v-13
q0 -109 -46 -172.5t-127 -66.5z" />
    <glyph glyph-name="Egrave" unicode="&#xc8;" horiz-adv-x="495" 
d="M226 82q0 -26 5.5 -36t19.5 -10q22 0 58.5 20t71.5 50q29 26 52 51.5t46 59.5l4 -1l-60 -249h-5q-6 10 -12 16.5t-14.5 10.5t-21.5 5t-33 1h-318v4q17 11 28 22.5t18 26.5t9.5 34.5t2.5 46.5v399q0 27 -2.5 46.5t-9.5 34.5t-18 26.5t-28 22.5v4h311q19 0 32.5 1.5t23 5
t16.5 10t14 17.5h5l36 -239l-4 -1q-24 37 -52 68.5t-55 54.5t-52 36.5t-43 13.5q-14 0 -19.5 -9t-5.5 -31v-235h49q31 0 52.5 3t38 11t28.5 21.5t24 34.5h5v-184h-5q-11 24 -22 38.5t-26.5 23t-37.5 11t-55 2.5h-51v-238zM220 879q17 -57 41.5 -92t63.5 -59h-17
q-66 0 -119.5 39.5t-82.5 111.5h114z" />
    <glyph glyph-name="Eacute" unicode="&#xc9;" horiz-adv-x="495" 
d="M226 82q0 -26 5.5 -36t19.5 -10q22 0 58.5 20t71.5 50q29 26 52 51.5t46 59.5l4 -1l-60 -249h-5q-6 10 -12 16.5t-14.5 10.5t-21.5 5t-33 1h-318v4q17 11 28 22.5t18 26.5t9.5 34.5t2.5 46.5v399q0 27 -2.5 46.5t-9.5 34.5t-18 26.5t-28 22.5v4h311q19 0 32.5 1.5t23 5
t16.5 10t14 17.5h5l36 -239l-4 -1q-24 37 -52 68.5t-55 54.5t-52 36.5t-43 13.5q-14 0 -19.5 -9t-5.5 -31v-235h49q31 0 52.5 3t38 11t28.5 21.5t24 34.5h5v-184h-5q-11 24 -22 38.5t-26.5 23t-37.5 11t-55 2.5h-51v-238zM378 879q-29 -72 -82.5 -111.5t-119.5 -39.5h-17
q38 24 63 59t42 92h114z" />
    <glyph glyph-name="Ecircumflex" unicode="&#xca;" horiz-adv-x="495" 
d="M226 82q0 -26 5.5 -36t19.5 -10q22 0 58.5 20t71.5 50q29 26 52 51.5t46 59.5l4 -1l-60 -249h-5q-6 10 -12 16.5t-14.5 10.5t-21.5 5t-33 1h-318v4q17 11 28 22.5t18 26.5t9.5 34.5t2.5 46.5v399q0 27 -2.5 46.5t-9.5 34.5t-18 26.5t-28 22.5v4h311q19 0 32.5 1.5t23 5
t16.5 10t14 17.5h5l36 -239l-4 -1q-24 37 -52 68.5t-55 54.5t-52 36.5t-43 13.5q-14 0 -19.5 -9t-5.5 -31v-235h49q31 0 52.5 3t38 11t28.5 21.5t24 34.5h5v-184h-5q-11 24 -22 38.5t-26.5 23t-37.5 11t-55 2.5h-51v-238zM238 776q-67 -41 -151 -41h-8t-12 1
q23 10 47.5 26.5t47 36.5t42 43t34.5 46q30 -47 74.5 -88t91.5 -64q-8 -1 -14 -1h-9q-40 0 -73 9.5t-70 31.5z" />
    <glyph glyph-name="Edieresis" unicode="&#xcb;" horiz-adv-x="495" 
d="M226 82q0 -26 5.5 -36t19.5 -10q22 0 58.5 20t71.5 50q29 26 52 51.5t46 59.5l4 -1l-60 -249h-5q-6 10 -12 16.5t-14.5 10.5t-21.5 5t-33 1h-318v4q17 11 28 22.5t18 26.5t9.5 34.5t2.5 46.5v399q0 27 -2.5 46.5t-9.5 34.5t-18 26.5t-28 22.5v4h311q19 0 32.5 1.5t23 5
t16.5 10t14 17.5h5l36 -239l-4 -1q-24 37 -52 68.5t-55 54.5t-52 36.5t-43 13.5q-14 0 -19.5 -9t-5.5 -31v-235h49q31 0 52.5 3t38 11t28.5 21.5t24 34.5h5v-184h-5q-11 24 -22 38.5t-26.5 23t-37.5 11t-55 2.5h-51v-238zM295 853q26 0 44 -17.5t18 -43.5t-18 -44.5
t-44 -18.5t-44 18t-18 44t18 44t44 18zM109 853q26 0 44 -17.5t18 -43.5t-18 -44.5t-44 -18.5t-44 18t-18 44t18 44t44 18z" />
    <glyph glyph-name="Igrave" unicode="&#xcc;" horiz-adv-x="303" 
d="M282 0h-267v4q34 17 47.5 45.5t13.5 83.5v401q0 27 -2.5 46.5t-9.5 34.5t-18 26t-28 22v4h264v-4q-17 -12 -28 -24t-17.5 -26.5t-9 -33.5t-2.5 -45v-401q0 -26 2.5 -45t9 -33.5t17.5 -26.5t28 -24v-4zM124 879q17 -57 41.5 -92t63.5 -59h-17q-66 0 -119.5 39.5
t-82.5 111.5h114z" />
    <glyph glyph-name="Iacute" unicode="&#xcd;" horiz-adv-x="303" 
d="M282 0h-267v4q34 17 47.5 45.5t13.5 83.5v401q0 27 -2.5 46.5t-9.5 34.5t-18 26t-28 22v4h264v-4q-17 -12 -28 -24t-17.5 -26.5t-9 -33.5t-2.5 -45v-401q0 -26 2.5 -45t9 -33.5t17.5 -26.5t28 -24v-4zM295 879q-29 -72 -82.5 -111.5t-119.5 -39.5h-17q38 24 63 59t42 92
h114z" />
    <glyph glyph-name="Icircumflex" unicode="&#xce;" horiz-adv-x="303" 
d="M282 0h-267v4q34 17 47.5 45.5t13.5 83.5v401q0 27 -2.5 46.5t-9.5 34.5t-18 26t-28 22v4h264v-4q-17 -12 -28 -24t-17.5 -26.5t-9 -33.5t-2.5 -45v-401q0 -26 2.5 -45t9 -33.5t17.5 -26.5t28 -24v-4zM155 776q-67 -41 -151 -41h-8t-12 1q23 10 47.5 26.5t47 36.5t42 43
t34.5 46q30 -47 74.5 -88t91.5 -64q-8 -1 -14 -1h-9q-40 0 -73 9.5t-70 31.5z" />
    <glyph glyph-name="Idieresis" unicode="&#xcf;" horiz-adv-x="303" 
d="M282 0h-267v4q34 17 47.5 45.5t13.5 83.5v401q0 27 -2.5 46.5t-9.5 34.5t-18 26t-28 22v4h264v-4q-17 -12 -28 -24t-17.5 -26.5t-9 -33.5t-2.5 -45v-401q0 -26 2.5 -45t9 -33.5t17.5 -26.5t28 -24v-4zM232 853q26 0 44 -17.5t18 -43.5t-18 -44.5t-44 -18.5t-44 18t-18 44
t18 44t44 18zM46 853q26 0 44 -17.5t18 -43.5t-18 -44.5t-44 -18.5t-44 18t-18 44t18 44t44 18z" />
    <glyph glyph-name="Eth" unicode="&#xd0;" horiz-adv-x="573" 
d="M225 95q0 -39 10 -57t32 -18q24 0 43.5 22.5t33.5 63.5t21.5 99t7.5 129q0 69 -7.5 126.5t-21.5 99t-33.5 64.5t-42.5 23t-33 -15.5t-10 -53.5v-212h77v-66h-77v-205zM10 300v66h66v168q0 27 -2.5 46t-9.5 34t-18 26.5t-28 22.5v4q21 3 47.5 6.5t54 5.5t53.5 3.5t47 1.5
q89 0 151 -29t107 -92q68 -97 68 -221q0 -80 -24 -148.5t-69 -119.5q-42 -48 -94 -69.5t-122 -21.5q-21 0 -47.5 1t-56 3.5t-59 5.5t-56.5 7v4q17 11 28 22.5t18 26.5t9.5 34t2.5 46v167h-66z" />
    <glyph glyph-name="Ntilde" unicode="&#xd1;" horiz-adv-x="510" 
d="M418 -21l-296 510v-356q0 -49 14.5 -77t52.5 -52v-4h-178v4q19 13 32 27t20.5 31t10.5 39t3 52v360q0 25 -3 45t-10.5 37.5t-20.5 33.5t-32 33v5h175l212 -365v218q0 60 -15 91.5t-52 51.5v4h179v-4q-36 -24 -52 -54.5t-16 -74.5v-555h-24zM447 847q-19 -50 -55.5 -79
t-81.5 -29q-9 0 -16.5 0.5t-16 3t-19.5 6.5t-27 10q-21 10 -46 10q-21 0 -38.5 -7.5t-43.5 -27.5q7 22 22 42t34.5 35t41 23.5t42.5 8.5q8 0 15 -0.5t15 -2.5t18.5 -5.5t25.5 -9.5q18 -7 30.5 -9.5t24.5 -2.5q44 0 75 34z" />
    <glyph glyph-name="Ograve" unicode="&#xd2;" horiz-adv-x="559" 
d="M279 652q-39 0 -55 -50q-12 -42 -19 -112.5t-7 -158.5q0 -80 5 -136t17 -104q18 -76 61 -76q37 0 53 53q14 48 20.5 111.5t6.5 148.5q0 45 -1 80t-3.5 64.5t-7 56t-10.5 53.5q-16 70 -60 70zM280 690q39 0 80.5 -22.5t76.5 -62.5q95 -109 95 -274q0 -73 -23 -139.5
t-68 -121.5q-76 -93 -160 -93q-49 0 -95 30t-81 80t-56.5 115t-21.5 135q0 68 20.5 132t58.5 115q38 50 84 78t90 28zM252 879q17 -57 41.5 -92t63.5 -59h-17q-66 0 -119.5 39.5t-82.5 111.5h114z" />
    <glyph glyph-name="Oacute" unicode="&#xd3;" horiz-adv-x="559" 
d="M279 652q-39 0 -55 -50q-12 -42 -19 -112.5t-7 -158.5q0 -80 5 -136t17 -104q18 -76 61 -76q37 0 53 53q14 48 20.5 111.5t6.5 148.5q0 45 -1 80t-3.5 64.5t-7 56t-10.5 53.5q-16 70 -60 70zM280 690q39 0 80.5 -22.5t76.5 -62.5q95 -109 95 -274q0 -73 -23 -139.5
t-68 -121.5q-76 -93 -160 -93q-49 0 -95 30t-81 80t-56.5 115t-21.5 135q0 68 20.5 132t58.5 115q38 50 84 78t90 28zM423 879q-29 -72 -82.5 -111.5t-119.5 -39.5h-17q38 24 63 59t42 92h114z" />
    <glyph glyph-name="Ocircumflex" unicode="&#xd4;" horiz-adv-x="559" 
d="M279 652q-39 0 -55 -50q-12 -42 -19 -112.5t-7 -158.5q0 -80 5 -136t17 -104q18 -76 61 -76q37 0 53 53q14 48 20.5 111.5t6.5 148.5q0 45 -1 80t-3.5 64.5t-7 56t-10.5 53.5q-16 70 -60 70zM280 690q39 0 80.5 -22.5t76.5 -62.5q95 -109 95 -274q0 -73 -23 -139.5
t-68 -121.5q-76 -93 -160 -93q-49 0 -95 30t-81 80t-56.5 115t-21.5 135q0 68 20.5 132t58.5 115q38 50 84 78t90 28zM282 776q-67 -41 -151 -41h-8t-12 1q23 10 47.5 26.5t47 36.5t42 43t34.5 46q30 -47 74.5 -88t91.5 -64q-8 -1 -14 -1h-9q-40 0 -73 9.5t-70 31.5z" />
    <glyph glyph-name="Otilde" unicode="&#xd5;" horiz-adv-x="559" 
d="M279 652q-39 0 -55 -50q-12 -42 -19 -112.5t-7 -158.5q0 -80 5 -136t17 -104q18 -76 61 -76q37 0 53 53q14 48 20.5 111.5t6.5 148.5q0 45 -1 80t-3.5 64.5t-7 56t-10.5 53.5q-16 70 -60 70zM280 690q39 0 80.5 -22.5t76.5 -62.5q95 -109 95 -274q0 -73 -23 -139.5
t-68 -121.5q-76 -93 -160 -93q-49 0 -95 30t-81 80t-56.5 115t-21.5 135q0 68 20.5 132t58.5 115q38 50 84 78t90 28zM452 847q-19 -50 -55.5 -79t-81.5 -29q-9 0 -16.5 0.5t-16 3t-19.5 6.5t-27 10q-21 10 -46 10q-21 0 -38.5 -7.5t-43.5 -27.5q7 22 22 42t34.5 35t41 23.5
t42.5 8.5q8 0 15 -0.5t15 -2.5t18.5 -5.5t25.5 -9.5q18 -7 30.5 -9.5t24.5 -2.5q44 0 75 34z" />
    <glyph glyph-name="Odieresis" unicode="&#xd6;" horiz-adv-x="559" 
d="M279 652q-39 0 -55 -50q-12 -42 -19 -112.5t-7 -158.5q0 -80 5 -136t17 -104q18 -76 61 -76q37 0 53 53q14 48 20.5 111.5t6.5 148.5q0 45 -1 80t-3.5 64.5t-7 56t-10.5 53.5q-16 70 -60 70zM280 690q39 0 80.5 -22.5t76.5 -62.5q95 -109 95 -274q0 -73 -23 -139.5
t-68 -121.5q-76 -93 -160 -93q-49 0 -95 30t-81 80t-56.5 115t-21.5 135q0 68 20.5 132t58.5 115q38 50 84 78t90 28zM343 853q26 0 44 -17.5t18 -43.5t-18 -44.5t-44 -18.5t-44 18t-18 44t18 44t44 18zM157 853q26 0 44 -17.5t18 -43.5t-18 -44.5t-44 -18.5t-44 18t-18 44
t18 44t44 18z" />
    <glyph glyph-name="multiply" unicode="&#xd7;" horiz-adv-x="333" 
d="M258 481l56 -57l-90 -90l90 -91l-56 -56l-91 90l-90 -90l-57 56l90 91l-90 90l57 57l90 -91z" />
    <glyph glyph-name="Oslash" unicode="&#xd8;" horiz-adv-x="559" 
d="M353 502q-10 82 -26.5 116t-47.5 34q-39 0 -55 -50q-13 -43 -19.5 -114t-6.5 -165v-39zM203 197q10 -100 27.5 -141.5t50.5 -41.5q37 0 53 53q14 49 20.5 112.5t6.5 153.5v46t-1 38zM466 567q32 -48 49 -107.5t17 -125.5q0 -150 -91 -264q-76 -94 -160 -94
q-45 0 -87.5 25t-78.5 73l-57 -81h-67l92 129q-26 46 -41 102t-15 113q0 68 21.5 132t56.5 113t81 78.5t95 29.5q74 0 150 -78l56 78h67z" />
    <glyph glyph-name="Ugrave" unicode="&#xd9;" horiz-adv-x="516" 
d="M507 663q-32 -18 -46.5 -49t-14.5 -80l4 -328v-17q0 -32 -1.5 -54t-6 -38.5t-11.5 -30t-19 -27.5q-25 -31 -59 -45t-83 -14q-64 0 -112.5 24.5t-71.5 68.5q-11 20 -16 53.5t-4 75.5l6 332v9q2 45 -13.5 75.5t-47.5 44.5v4h268v-4q-17 -12 -28 -23.5t-18 -26.5t-10 -34
t-3 -45l-5 -357v-1t0.5 -6t1 -15t1.5 -28t9 -34t21 -27.5t30 -18.5t36 -7q27 0 49.5 14t33.5 40q6 14 9 39.5t2 51.5v11l-4 338q-1 52 -16.5 82.5t-48.5 46.5v4h168v-4zM296 879q17 -57 41.5 -92t63.5 -59h-17q-66 0 -119.5 39.5t-82.5 111.5h114z" />
    <glyph glyph-name="Uacute" unicode="&#xda;" horiz-adv-x="516" 
d="M507 663q-32 -18 -46.5 -49t-14.5 -80l4 -328v-17q0 -32 -1.5 -54t-6 -38.5t-11.5 -30t-19 -27.5q-25 -31 -59 -45t-83 -14q-64 0 -112.5 24.5t-71.5 68.5q-11 20 -16 53.5t-4 75.5l6 332v9q2 45 -13.5 75.5t-47.5 44.5v4h268v-4q-17 -12 -28 -23.5t-18 -26.5t-10 -34
t-3 -45l-5 -357v-1t0.5 -6t1 -15t1.5 -28t9 -34t21 -27.5t30 -18.5t36 -7q27 0 49.5 14t33.5 40q6 14 9 39.5t2 51.5v11l-4 338q-1 52 -16.5 82.5t-48.5 46.5v4h168v-4zM401 879q-29 -72 -82.5 -111.5t-119.5 -39.5h-17q38 24 63 59t42 92h114z" />
    <glyph glyph-name="Ucircumflex" unicode="&#xdb;" horiz-adv-x="516" 
d="M507 663q-32 -18 -46.5 -49t-14.5 -80l4 -328v-17q0 -32 -1.5 -54t-6 -38.5t-11.5 -30t-19 -27.5q-25 -31 -59 -45t-83 -14q-64 0 -112.5 24.5t-71.5 68.5q-11 20 -16 53.5t-4 75.5l6 332v9q2 45 -13.5 75.5t-47.5 44.5v4h268v-4q-17 -12 -28 -23.5t-18 -26.5t-10 -34
t-3 -45l-5 -357v-1t0.5 -6t1 -15t1.5 -28t9 -34t21 -27.5t30 -18.5t36 -7q27 0 49.5 14t33.5 40q6 14 9 39.5t2 51.5v11l-4 338q-1 52 -16.5 82.5t-48.5 46.5v4h168v-4zM280 776q-67 -41 -151 -41h-8t-12 1q23 10 47.5 26.5t47 36.5t42 43t34.5 46q30 -47 74.5 -88t91.5 -64
q-8 -1 -14 -1h-9q-40 0 -73 9.5t-70 31.5z" />
    <glyph glyph-name="Udieresis" unicode="&#xdc;" horiz-adv-x="516" 
d="M507 663q-32 -18 -46.5 -49t-14.5 -80l4 -328v-17q0 -32 -1.5 -54t-6 -38.5t-11.5 -30t-19 -27.5q-25 -31 -59 -45t-83 -14q-64 0 -112.5 24.5t-71.5 68.5q-11 20 -16 53.5t-4 75.5l6 332v9q2 45 -13.5 75.5t-47.5 44.5v4h268v-4q-17 -12 -28 -23.5t-18 -26.5t-10 -34
t-3 -45l-5 -357v-1t0.5 -6t1 -15t1.5 -28t9 -34t21 -27.5t30 -18.5t36 -7q27 0 49.5 14t33.5 40q6 14 9 39.5t2 51.5v11l-4 338q-1 52 -16.5 82.5t-48.5 46.5v4h168v-4zM336 853q26 0 44 -17.5t18 -43.5t-18 -44.5t-44 -18.5t-44 18t-18 44t18 44t44 18zM150 853
q26 0 44 -17.5t18 -43.5t-18 -44.5t-44 -18.5t-44 18t-18 44t18 44t44 18z" />
    <glyph glyph-name="Yacute" unicode="&#xdd;" horiz-adv-x="475" 
d="M316 133q0 -26 2 -44t8 -32t17 -26t29 -27v-4h-263v4q33 21 45.5 48.5t12.5 80.5v169l-104 256q-11 26 -18.5 42.5t-16 27t-18.5 18t-26 16.5v5h244v-5q-32 -15 -32 -43q0 -19 11 -47l86 -205l64 168q7 20 11.5 39.5t4.5 31.5q0 21 -7 33t-27 23v5h156v-5
q-31 -14 -50.5 -40t-36.5 -74l-92 -246v-169zM381 879q-29 -72 -82.5 -111.5t-119.5 -39.5h-17q38 24 63 59t42 92h114z" />
    <glyph glyph-name="Thorn" unicode="&#xde;" horiz-adv-x="544" 
d="M242 175q62 0 82 24q32 38 32 145q0 85 -24 137t-63 52q-23 0 -33.5 -15t-10.5 -49v-294h17zM282 663q-27 -18 -39.5 -39.5t-16.5 -53.5q37 -1 64 -3t48 -5.5t37.5 -9t32.5 -13.5q57 -29 86.5 -75.5t29.5 -107.5q0 -66 -34.5 -117t-95.5 -77q-27 -11 -67 -17.5t-85 -6.5
h-17q0 -27 2.5 -47t9 -35.5t17.5 -27.5t28 -24v-4h-267v4q34 17 47.5 45.5t13.5 84.5v400q0 27 -2.5 46.5t-9.5 34.5t-18 26t-28 22v4h264v-4z" />
    <glyph glyph-name="germandbls" unicode="&#xdf;" horiz-adv-x="446" 
d="M56 390q0 29 1 50t3 36.5t5.5 28.5t9.5 26q26 61 77 96t114 35q44 0 71 -23t27 -61q0 -75 -106 -144q38 -2 62 -10.5t47 -25.5q29 -23 44.5 -60t15.5 -82q0 -54 -20 -111t-54 -102q-27 -35 -52 -52t-64 -27v28q10 4 17 9.5t12.5 13t9 18.5t7.5 27q7 25 10.5 60t3.5 69
q0 61 -8.5 105.5t-23.5 65.5q-10 14 -22 21.5t-34 12.5v18q58 75 58 145q0 31 -12 48.5t-35 17.5q-29 0 -49 -30t-20 -74q0 -54 32 -98v-301q0 -26 1 -43t4.5 -29t10 -22t17.5 -22v-4h-210v4q28 22 39 51t11 79v256z" />
    <glyph glyph-name="agrave" unicode="&#xe0;" horiz-adv-x="419" 
d="M237 261q-24 -10 -40 -21t-26 -25t-14 -32.5t-4 -42.5q0 -38 13 -58.5t37 -20.5q8 0 15 2t19 8v190zM364 124q0 -35 6.5 -50t21.5 -15q4 0 7 0.5t15 4.5q-31 -72 -95 -72q-27 0 -48.5 14t-33.5 40q-26 -28 -51.5 -40.5t-56.5 -12.5q-45 0 -72.5 27t-27.5 70q0 74 74 130
q13 10 23 17t22.5 13.5t31 14.5t48.5 21l9 4v95q0 29 -6.5 40.5t-21.5 11.5q-21 0 -31 -25q-2 -5 -3 -8t-2 -8t-2.5 -13t-3.5 -22q-5 -35 -23 -55t-45 -20q-20 0 -33.5 14t-13.5 34q0 27 18.5 52t49.5 44.5t71.5 31.5t83.5 12q50 0 69.5 -22t19.5 -79v-249zM215 666
q17 -57 41.5 -92t63.5 -59h-17q-66 0 -119.5 39.5t-82.5 111.5h114z" />
    <glyph glyph-name="aacute" unicode="&#xe1;" horiz-adv-x="419" 
d="M237 261q-24 -10 -40 -21t-26 -25t-14 -32.5t-4 -42.5q0 -38 13 -58.5t37 -20.5q8 0 15 2t19 8v190zM364 124q0 -35 6.5 -50t21.5 -15q4 0 7 0.5t15 4.5q-31 -72 -95 -72q-27 0 -48.5 14t-33.5 40q-26 -28 -51.5 -40.5t-56.5 -12.5q-45 0 -72.5 27t-27.5 70q0 74 74 130
q13 10 23 17t22.5 13.5t31 14.5t48.5 21l9 4v95q0 29 -6.5 40.5t-21.5 11.5q-21 0 -31 -25q-2 -5 -3 -8t-2 -8t-2.5 -13t-3.5 -22q-5 -35 -23 -55t-45 -20q-20 0 -33.5 14t-13.5 34q0 27 18.5 52t49.5 44.5t71.5 31.5t83.5 12q50 0 69.5 -22t19.5 -79v-249zM353 666
q-29 -72 -82.5 -111.5t-119.5 -39.5h-17q38 24 63 59t42 92h114z" />
    <glyph glyph-name="acircumflex" unicode="&#xe2;" horiz-adv-x="419" 
d="M237 261q-24 -10 -40 -21t-26 -25t-14 -32.5t-4 -42.5q0 -38 13 -58.5t37 -20.5q8 0 15 2t19 8v190zM364 124q0 -35 6.5 -50t21.5 -15q4 0 7 0.5t15 4.5q-31 -72 -95 -72q-27 0 -48.5 14t-33.5 40q-26 -28 -51.5 -40.5t-56.5 -12.5q-45 0 -72.5 27t-27.5 70q0 74 74 130
q13 10 23 17t22.5 13.5t31 14.5t48.5 21l9 4v95q0 29 -6.5 40.5t-21.5 11.5q-21 0 -31 -25q-2 -5 -3 -8t-2 -8t-2.5 -13t-3.5 -22q-5 -35 -23 -55t-45 -20q-20 0 -33.5 14t-13.5 34q0 27 18.5 52t49.5 44.5t71.5 31.5t83.5 12q50 0 69.5 -22t19.5 -79v-249zM226 570
q-67 -41 -151 -41h-8t-12 1q23 10 47.5 26.5t47 36.5t42 43t34.5 46q30 -47 74.5 -88t91.5 -64q-8 -1 -14 -1h-9q-40 0 -73 9.5t-70 31.5z" />
    <glyph glyph-name="atilde" unicode="&#xe3;" horiz-adv-x="419" 
d="M237 261q-24 -10 -40 -21t-26 -25t-14 -32.5t-4 -42.5q0 -38 13 -58.5t37 -20.5q8 0 15 2t19 8v190zM364 124q0 -35 6.5 -50t21.5 -15q4 0 7 0.5t15 4.5q-31 -72 -95 -72q-27 0 -48.5 14t-33.5 40q-26 -28 -51.5 -40.5t-56.5 -12.5q-45 0 -72.5 27t-27.5 70q0 74 74 130
q13 10 23 17t22.5 13.5t31 14.5t48.5 21l9 4v95q0 29 -6.5 40.5t-21.5 11.5q-21 0 -31 -25q-2 -5 -3 -8t-2 -8t-2.5 -13t-3.5 -22q-5 -35 -23 -55t-45 -20q-20 0 -33.5 14t-13.5 34q0 27 18.5 52t49.5 44.5t71.5 31.5t83.5 12q50 0 69.5 -22t19.5 -79v-249zM395 645
q-19 -50 -55.5 -79t-81.5 -29q-9 0 -16.5 0.5t-16 3t-19.5 6.5t-27 10q-21 10 -46 10q-21 0 -38.5 -7.5t-43.5 -27.5q7 22 22 42t34.5 35t41 23.5t42.5 8.5q8 0 15 -0.5t15 -2.5t18.5 -5.5t25.5 -9.5q18 -7 30.5 -9.5t24.5 -2.5q44 0 75 34z" />
    <glyph glyph-name="adieresis" unicode="&#xe4;" horiz-adv-x="419" 
d="M237 261q-24 -10 -40 -21t-26 -25t-14 -32.5t-4 -42.5q0 -38 13 -58.5t37 -20.5q8 0 15 2t19 8v190zM364 124q0 -35 6.5 -50t21.5 -15q4 0 7 0.5t15 4.5q-31 -72 -95 -72q-27 0 -48.5 14t-33.5 40q-26 -28 -51.5 -40.5t-56.5 -12.5q-45 0 -72.5 27t-27.5 70q0 74 74 130
q13 10 23 17t22.5 13.5t31 14.5t48.5 21l9 4v95q0 29 -6.5 40.5t-21.5 11.5q-21 0 -31 -25q-2 -5 -3 -8t-2 -8t-2.5 -13t-3.5 -22q-5 -35 -23 -55t-45 -20q-20 0 -33.5 14t-13.5 34q0 27 18.5 52t49.5 44.5t71.5 31.5t83.5 12q50 0 69.5 -22t19.5 -79v-249zM303 648
q26 0 44 -17.5t18 -43.5t-18 -44.5t-44 -18.5t-44 18t-18 44t18 44t44 18zM117 648q26 0 44 -17.5t18 -43.5t-18 -44.5t-44 -18.5t-44 18t-18 44t18 44t44 18z" />
    <glyph glyph-name="aring" unicode="&#xe5;" horiz-adv-x="419" 
d="M237 261q-24 -10 -40 -21t-26 -25t-14 -32.5t-4 -42.5q0 -38 13 -58.5t37 -20.5q8 0 15 2t19 8v190zM364 124q0 -35 6.5 -50t21.5 -15q4 0 7 0.5t15 4.5q-31 -72 -95 -72q-27 0 -48.5 14t-33.5 40q-26 -28 -51.5 -40.5t-56.5 -12.5q-45 0 -72.5 27t-27.5 70q0 74 74 130
q13 10 23 17t22.5 13.5t31 14.5t48.5 21l9 4v95q0 29 -6.5 40.5t-21.5 11.5q-21 0 -31 -25q-2 -5 -3 -8t-2 -8t-2.5 -13t-3.5 -22q-5 -35 -23 -55t-45 -20q-20 0 -33.5 14t-13.5 34q0 27 18.5 52t49.5 44.5t71.5 31.5t83.5 12q50 0 69.5 -22t19.5 -79v-249zM93 616
q-17 0 -29.5 -12t-12.5 -29t12 -29.5t30 -12.5q17 0 29 12.5t12 29.5t-12 29t-29 12zM93 663q18 0 34 -7t28 -19t19 -28t7 -34t-7 -34.5t-19 -28.5t-28 -19t-34 -7q-38 0 -63.5 26t-25.5 64q0 18 7 33.5t19 27.5t28.5 19t34.5 7z" />
    <glyph glyph-name="ae" unicode="&#xe6;" horiz-adv-x="569" 
d="M437 287q-7 88 -17.5 123.5t-29.5 35.5q-20 0 -32 -41t-12 -106v-12h91zM236 263q-48 -23 -66.5 -50.5t-18.5 -74.5q0 -42 14 -65.5t38 -23.5q35 0 35 39zM346 254q1 -32 9.5 -58.5t22 -46t32 -30.5t40.5 -11q30 0 54.5 17.5t40.5 49.5h5q-5 -92 -43 -139.5t-107 -47.5
q-38 0 -66.5 14.5t-54.5 46.5q-29 -29 -65 -45t-75 -16q-23 0 -43 8t-35 21.5t-23.5 32t-8.5 39.5q0 37 21.5 72.5t60.5 62.5q12 8 22 14.5t23 13t32 15.5t48 22v100q0 26 -6.5 36t-22.5 10q-34 0 -39 -53q-2 -26 -4.5 -36.5t-6.5 -21.5q-8 -19 -23.5 -29.5t-33.5 -10.5
q-22 0 -36 13.5t-14 36.5q0 25 18.5 50t48.5 45.5t67 33t74 12.5q20 0 31.5 -7.5t19.5 -25.5q22 19 38.5 26t39.5 7q30 0 57.5 -17t49.5 -47t37 -70.5t19 -86.5h-204z" />
    <glyph glyph-name="ccedilla" unicode="&#xe7;" horiz-adv-x="344" 
d="M189 -53q5 1 8 1h7q29 0 44.5 -16t15.5 -44q0 -21 -8.5 -41t-22 -36t-31.5 -25.5t-36 -9.5q-20 0 -35.5 9.5t-32.5 32.5l20 44l5 -2q3 -29 11.5 -41.5t25.5 -12.5q19 0 32 21t13 50q0 22 -9 34.5t-24 12.5q-16 0 -27 -19l-7 4l37 80q-70 8 -111 60.5t-41 132.5
q0 50 15 101.5t43 95.5q60 96 150 96q23 0 45 -5t50 -17l-66 -165h-4q-15 83 -29 115t-33 32q-27 0 -43 -47.5t-16 -126.5q0 -154 103 -154q33 0 56 16t41 52h4q-5 -82 -38.5 -129.5t-91.5 -55.5z" />
    <glyph glyph-name="egrave" unicode="&#xe8;" horiz-adv-x="354" 
d="M222 287q-5 84 -15 122t-29 38q-13 0 -20.5 -11.5t-13.5 -40.5q-7 -31 -9.5 -55t-2.5 -53h90zM132 254q2 -68 29 -106t74 -38q29 0 54 16t42 46h4q-2 -40 -8.5 -66.5t-20.5 -49.5q-20 -32 -51 -50t-66 -18q-36 0 -66.5 16.5t-52.5 45.5t-34.5 69.5t-12.5 88.5
q0 52 13 100.5t34.5 85.5t50 59t58.5 22q36 0 68.5 -25.5t54.5 -70.5q11 -23 18.5 -52t14.5 -73h-203zM150 666q17 -57 41.5 -92t63.5 -59h-17q-66 0 -119.5 39.5t-82.5 111.5h114z" />
    <glyph glyph-name="eacute" unicode="&#xe9;" horiz-adv-x="354" 
d="M222 287q-5 84 -15 122t-29 38q-13 0 -20.5 -11.5t-13.5 -40.5q-7 -31 -9.5 -55t-2.5 -53h90zM132 254q2 -68 29 -106t74 -38q29 0 54 16t42 46h4q-2 -40 -8.5 -66.5t-20.5 -49.5q-20 -32 -51 -50t-66 -18q-36 0 -66.5 16.5t-52.5 45.5t-34.5 69.5t-12.5 88.5
q0 52 13 100.5t34.5 85.5t50 59t58.5 22q36 0 68.5 -25.5t54.5 -70.5q11 -23 18.5 -52t14.5 -73h-203zM321 666q-29 -72 -82.5 -111.5t-119.5 -39.5h-17q38 24 63 59t42 92h114z" />
    <glyph glyph-name="ecircumflex" unicode="&#xea;" horiz-adv-x="354" 
d="M222 287q-5 84 -15 122t-29 38q-13 0 -20.5 -11.5t-13.5 -40.5q-7 -31 -9.5 -55t-2.5 -53h90zM132 254q2 -68 29 -106t74 -38q29 0 54 16t42 46h4q-2 -40 -8.5 -66.5t-20.5 -49.5q-20 -32 -51 -50t-66 -18q-36 0 -66.5 16.5t-52.5 45.5t-34.5 69.5t-12.5 88.5
q0 52 13 100.5t34.5 85.5t50 59t58.5 22q36 0 68.5 -25.5t54.5 -70.5q11 -23 18.5 -52t14.5 -73h-203zM180 570q-67 -41 -151 -41h-8t-12 1q23 10 47.5 26.5t47 36.5t42 43t34.5 46q30 -47 74.5 -88t91.5 -64q-8 -1 -14 -1h-9q-40 0 -73 9.5t-70 31.5z" />
    <glyph glyph-name="edieresis" unicode="&#xeb;" horiz-adv-x="354" 
d="M222 287q-5 84 -15 122t-29 38q-13 0 -20.5 -11.5t-13.5 -40.5q-7 -31 -9.5 -55t-2.5 -53h90zM132 254q2 -68 29 -106t74 -38q29 0 54 16t42 46h4q-2 -40 -8.5 -66.5t-20.5 -49.5q-20 -32 -51 -50t-66 -18q-36 0 -66.5 16.5t-52.5 45.5t-34.5 69.5t-12.5 88.5
q0 52 13 100.5t34.5 85.5t50 59t58.5 22q36 0 68.5 -25.5t54.5 -70.5q11 -23 18.5 -52t14.5 -73h-203zM271 648q26 0 44 -17.5t18 -43.5t-18 -44.5t-44 -18.5t-44 18t-18 44t18 44t44 18zM85 648q26 0 44 -17.5t18 -43.5t-18 -44.5t-44 -18.5t-44 18t-18 44t18 44t44 18z
" />
    <glyph glyph-name="igrave" unicode="&#xec;" horiz-adv-x="252" 
d="M190 120q0 -45 11.5 -71.5t39.5 -44.5v-4h-227v4q14 12 23.5 23t15 24.5t8 30t2.5 38.5v175q0 25 -1.5 42t-6 30t-13 23t-21.5 21v4q32 6 56.5 13t43.5 15t34 17.5t30 22.5h5v-363zM98 666q17 -57 41.5 -92t63.5 -59h-17q-66 0 -119.5 39.5t-82.5 111.5h114z" />
    <glyph glyph-name="iacute" unicode="&#xed;" horiz-adv-x="252" 
d="M190 120q0 -45 11.5 -71.5t39.5 -44.5v-4h-227v4q14 12 23.5 23t15 24.5t8 30t2.5 38.5v175q0 25 -1.5 42t-6 30t-13 23t-21.5 21v4q32 6 56.5 13t43.5 15t34 17.5t30 22.5h5v-363zM270 666q-29 -72 -82.5 -111.5t-119.5 -39.5h-17q38 24 63 59t42 92h114z" />
    <glyph glyph-name="icircumflex" unicode="&#xee;" horiz-adv-x="252" 
d="M190 120q0 -45 11.5 -71.5t39.5 -44.5v-4h-227v4q14 12 23.5 23t15 24.5t8 30t2.5 38.5v175q0 25 -1.5 42t-6 30t-13 23t-21.5 21v4q32 6 56.5 13t43.5 15t34 17.5t30 22.5h5v-363zM129 570q-67 -41 -151 -41h-8t-12 1q23 10 47.5 26.5t47 36.5t42 43t34.5 46
q30 -47 74.5 -88t91.5 -64q-8 -1 -14 -1h-9q-40 0 -73 9.5t-70 31.5z" />
    <glyph glyph-name="idieresis" unicode="&#xef;" horiz-adv-x="252" 
d="M190 120q0 -45 11.5 -71.5t39.5 -44.5v-4h-227v4q14 12 23.5 23t15 24.5t8 30t2.5 38.5v175q0 25 -1.5 42t-6 30t-13 23t-21.5 21v4q32 6 56.5 13t43.5 15t34 17.5t30 22.5h5v-363zM233 648q26 0 44 -17.5t18 -43.5t-18 -44.5t-44 -18.5t-44 18t-18 44t18 44t44 18z
M47 648q26 0 44 -17.5t18 -43.5t-18 -44.5t-44 -18.5t-44 18t-18 44t18 44t44 18z" />
    <glyph glyph-name="eth" unicode="&#xf0;" horiz-adv-x="415" 
d="M207 447q-28 0 -38 -47q-7 -27 -11 -75.5t-4 -99.5q0 -211 53 -211q28 0 40 46q3 12 5 30t4 40t3 45.5t1 46.5q0 118 -12.5 171.5t-40.5 53.5zM88 518l-30 42l85 59q-26 36 -75 88l2 4q33 -14 60.5 -28.5t54.5 -34.5l88 62l29 -43l-75 -52q81 -72 124.5 -170.5
t43.5 -211.5q0 -99 -56 -170q-28 -35 -63 -55t-69 -20q-36 0 -70 20t-60.5 53t-42 76t-15.5 89q0 49 16 94t43 79.5t62 55t72 20.5q-16 53 -42 100z" />
    <glyph glyph-name="ntilde" unicode="&#xf1;" horiz-adv-x="473" 
d="M190 404q96 68 151 68q23 0 41 -10.5t26 -30.5q5 -12 7 -27t2 -44v-240q0 -47 12.5 -74t40.5 -42v-4h-217v4q13 13 20 23t11 22t5 28.5t1 42.5v206q0 37 -10.5 52.5t-35.5 15.5q-23 0 -54 -17v-257q0 -26 1.5 -42.5t5 -29t11 -22.5t19.5 -22v-4h-215v4q28 18 39.5 44.5
t11.5 71.5v178q0 52 -10 77t-36 39v4q126 20 169 66h4v-80zM409 645q-19 -50 -55.5 -79t-81.5 -29q-9 0 -16.5 0.5t-16 3t-19.5 6.5t-27 10q-21 10 -46 10q-21 0 -38.5 -7.5t-43.5 -27.5q7 22 22 42t34.5 35t41 23.5t42.5 8.5q8 0 15 -0.5t15 -2.5t18.5 -5.5t25.5 -9.5
q18 -7 30.5 -9.5t24.5 -2.5q44 0 75 34z" />
    <glyph glyph-name="ograve" unicode="&#xf2;" horiz-adv-x="415" 
d="M207 447q-28 0 -38 -47q-7 -27 -11 -75.5t-4 -99.5q0 -211 53 -211q28 0 40 46q3 12 5 30t4 40t3 45.5t1 46.5q0 118 -12.5 171.5t-40.5 53.5zM207 475q36 0 69.5 -21.5t60 -57t42.5 -80.5t16 -93q0 -45 -16 -87t-42.5 -75t-60 -53t-69.5 -20t-70 20t-60.5 53t-42 76
t-15.5 89q0 47 16 92t42.5 80t60 56t69.5 21zM179 666q17 -57 41.5 -92t63.5 -59h-17q-66 0 -119.5 39.5t-82.5 111.5h114z" />
    <glyph glyph-name="oacute" unicode="&#xf3;" horiz-adv-x="415" 
d="M207 447q-28 0 -38 -47q-7 -27 -11 -75.5t-4 -99.5q0 -211 53 -211q28 0 40 46q3 12 5 30t4 40t3 45.5t1 46.5q0 118 -12.5 171.5t-40.5 53.5zM207 475q36 0 69.5 -21.5t60 -57t42.5 -80.5t16 -93q0 -45 -16 -87t-42.5 -75t-60 -53t-69.5 -20t-70 20t-60.5 53t-42 76
t-15.5 89q0 47 16 92t42.5 80t60 56t69.5 21zM351 666q-29 -72 -82.5 -111.5t-119.5 -39.5h-17q38 24 63 59t42 92h114z" />
    <glyph glyph-name="ocircumflex" unicode="&#xf4;" horiz-adv-x="415" 
d="M207 447q-28 0 -38 -47q-7 -27 -11 -75.5t-4 -99.5q0 -211 53 -211q28 0 40 46q3 12 5 30t4 40t3 45.5t1 46.5q0 118 -12.5 171.5t-40.5 53.5zM207 475q36 0 69.5 -21.5t60 -57t42.5 -80.5t16 -93q0 -45 -16 -87t-42.5 -75t-60 -53t-69.5 -20t-70 20t-60.5 53t-42 76
t-15.5 89q0 47 16 92t42.5 80t60 56t69.5 21zM210 570q-67 -41 -151 -41h-8t-12 1q23 10 47.5 26.5t47 36.5t42 43t34.5 46q30 -47 74.5 -88t91.5 -64q-8 -1 -14 -1h-9q-40 0 -73 9.5t-70 31.5z" />
    <glyph glyph-name="otilde" unicode="&#xf5;" horiz-adv-x="415" 
d="M207 447q-28 0 -38 -47q-7 -27 -11 -75.5t-4 -99.5q0 -211 53 -211q28 0 40 46q3 12 5 30t4 40t3 45.5t1 46.5q0 118 -12.5 171.5t-40.5 53.5zM207 475q36 0 69.5 -21.5t60 -57t42.5 -80.5t16 -93q0 -45 -16 -87t-42.5 -75t-60 -53t-69.5 -20t-70 20t-60.5 53t-42 76
t-15.5 89q0 47 16 92t42.5 80t60 56t69.5 21zM380 645q-19 -50 -55.5 -79t-81.5 -29q-9 0 -16.5 0.5t-16 3t-19.5 6.5t-27 10q-21 10 -46 10q-21 0 -38.5 -7.5t-43.5 -27.5q7 22 22 42t34.5 35t41 23.5t42.5 8.5q8 0 15 -0.5t15 -2.5t18.5 -5.5t25.5 -9.5q18 -7 30.5 -9.5
t24.5 -2.5q44 0 75 34z" />
    <glyph glyph-name="odieresis" unicode="&#xf6;" horiz-adv-x="416" 
d="M207 447q-28 0 -38 -47q-7 -27 -11 -75.5t-4 -99.5q0 -211 53 -211q28 0 40 46q3 12 5 30t4 40t3 45.5t1 46.5q0 118 -12.5 171.5t-40.5 53.5zM207 475q36 0 69.5 -21.5t60 -57t42.5 -80.5t16 -93q0 -45 -16 -87t-42.5 -75t-60 -53t-69.5 -20t-70 20t-60.5 53t-42 76
t-15.5 89q0 47 16 92t42.5 80t60 56t69.5 21zM302 648q26 0 44 -17.5t18 -43.5t-18 -44.5t-44 -18.5t-44 18t-18 44t18 44t44 18zM116 648q26 0 44 -17.5t18 -43.5t-18 -44.5t-44 -18.5t-44 18t-18 44t18 44t44 18z" />
    <glyph glyph-name="divide" unicode="&#xf7;" horiz-adv-x="333" 
d="M166 538q26 0 44 -17.5t18 -43.5t-18 -43.5t-44 -17.5q-25 0 -42.5 18t-17.5 44q0 24 18 42t42 18zM166 250q26 0 44 -17.5t18 -43.5t-18 -43.5t-44 -17.5q-25 0 -42.5 18t-17.5 44q0 24 18 42t42 18zM15 293v80h304v-80h-304z" />
    <glyph glyph-name="oslash" unicode="&#xf8;" horiz-adv-x="415" 
d="M254 355q-7 52 -17 72t-29 20q-20 0 -31 -23.5t-17 -83.5q-1 -9 -2 -26t-1.5 -36t-1 -37.5t-0.5 -29.5zM159 129q6 -64 17 -90t31 -26q30 0 40 46q6 25 10 70.5t4 91.5v24t-1 29zM341 391q26 -36 40.5 -79t14.5 -86q0 -46 -16 -89t-42 -76t-60 -53t-70 -20q-57 0 -112 52
l-34 -50h-60l62 89q-44 67 -44 146q0 48 16 92.5t42 79.5t60 56t70 21q26 0 49 -10.5t49 -33.5l32 46h62z" />
    <glyph glyph-name="ugrave" unicode="&#xf9;" horiz-adv-x="467" 
d="M410 158q0 -48 10.5 -72.5t37.5 -38.5v-3q-44 -6 -91 -20.5t-80 -32.5h-5v63q-49 -34 -85.5 -50t-64.5 -16q-19 0 -36 8.5t-26 22.5q-5 7 -7.5 14t-4 17.5t-2 26t-0.5 38.5v185q0 25 -2 43t-7 31.5t-13.5 23t-21.5 18.5v4q49 8 87 22.5t80 40.5h4v-335q0 -28 1 -39.5
t6 -20.5q11 -22 38 -22q12 0 25 3.5t30 11.5v219q0 25 -2 42.5t-6.5 31t-13 23.5t-20.5 19v4q31 6 53.5 12t41 13t35 16t34.5 22h5v-325zM205 666q17 -57 41.5 -92t63.5 -59h-17q-66 0 -119.5 39.5t-82.5 111.5h114z" />
    <glyph glyph-name="uacute" unicode="&#xfa;" horiz-adv-x="467" 
d="M410 158q0 -48 10.5 -72.5t37.5 -38.5v-3q-44 -6 -91 -20.5t-80 -32.5h-5v63q-49 -34 -85.5 -50t-64.5 -16q-19 0 -36 8.5t-26 22.5q-5 7 -7.5 14t-4 17.5t-2 26t-0.5 38.5v185q0 25 -2 43t-7 31.5t-13.5 23t-21.5 18.5v4q49 8 87 22.5t80 40.5h4v-335q0 -28 1 -39.5
t6 -20.5q11 -22 38 -22q12 0 25 3.5t30 11.5v219q0 25 -2 42.5t-6.5 31t-13 23.5t-20.5 19v4q31 6 53.5 12t41 13t35 16t34.5 22h5v-325zM376 666q-29 -72 -82.5 -111.5t-119.5 -39.5h-17q38 24 63 59t42 92h114z" />
    <glyph glyph-name="ucircumflex" unicode="&#xfb;" horiz-adv-x="467" 
d="M410 158q0 -48 10.5 -72.5t37.5 -38.5v-3q-44 -6 -91 -20.5t-80 -32.5h-5v63q-49 -34 -85.5 -50t-64.5 -16q-19 0 -36 8.5t-26 22.5q-5 7 -7.5 14t-4 17.5t-2 26t-0.5 38.5v185q0 25 -2 43t-7 31.5t-13.5 23t-21.5 18.5v4q49 8 87 22.5t80 40.5h4v-335q0 -28 1 -39.5
t6 -20.5q11 -22 38 -22q12 0 25 3.5t30 11.5v219q0 25 -2 42.5t-6.5 31t-13 23.5t-20.5 19v4q31 6 53.5 12t41 13t35 16t34.5 22h5v-325zM236 570q-67 -41 -151 -41h-8t-12 1q23 10 47.5 26.5t47 36.5t42 43t34.5 46q30 -47 74.5 -88t91.5 -64q-8 -1 -14 -1h-9
q-40 0 -73 9.5t-70 31.5z" />
    <glyph glyph-name="udieresis" unicode="&#xfc;" horiz-adv-x="467" 
d="M410 158q0 -48 10.5 -72.5t37.5 -38.5v-3q-44 -6 -91 -20.5t-80 -32.5h-5v63q-49 -34 -85.5 -50t-64.5 -16q-19 0 -36 8.5t-26 22.5q-5 7 -7.5 14t-4 17.5t-2 26t-0.5 38.5v185q0 25 -2 43t-7 31.5t-13.5 23t-21.5 18.5v4q49 8 87 22.5t80 40.5h4v-335q0 -28 1 -39.5
t6 -20.5q11 -22 38 -22q12 0 25 3.5t30 11.5v219q0 25 -2 42.5t-6.5 31t-13 23.5t-20.5 19v4q31 6 53.5 12t41 13t35 16t34.5 22h5v-325zM329 648q26 0 44 -17.5t18 -43.5t-18 -44.5t-44 -18.5t-44 18t-18 44t18 44t44 18zM143 648q26 0 44 -17.5t18 -43.5t-18 -44.5
t-44 -18.5t-44 18t-18 44t18 44t44 18z" />
    <glyph glyph-name="yacute" unicode="&#xfd;" horiz-adv-x="412" 
d="M65 332q-9 23 -16.5 39.5t-15.5 29t-17.5 21.5t-22.5 17v4h221v-4q-32 -17 -32 -49q0 -8 3.5 -21.5t8.5 -27.5l68 -180l49 160q6 19 8 29t2 20q0 21 -8.5 37t-28.5 32v4h146v-4q-34 -27 -55 -61.5t-37 -90.5l-108 -343q-7 -22 -12.5 -37.5t-11 -26.5t-12 -20t-14.5 -18
q-38 -42 -91 -42q-34 0 -54.5 18.5t-20.5 47.5q0 27 18 45t44 18q13 0 24 -4t25 -15t20 -14.5t13 -3.5q10 0 17.5 10.5t15.5 35.5l11 34zM356 666q-29 -72 -82.5 -111.5t-119.5 -39.5h-17q38 24 63 59t42 92h114z" />
    <glyph glyph-name="thorn" unicode="&#xfe;" horiz-adv-x="453" 
d="M190 187v-77q0 -51 9 -69.5t32 -18.5q30 0 44 33q13 29 20 72t7 91q0 43 -6 78t-16.5 60t-26 39t-33.5 14q-7 0 -13 -2t-17 -8v-212zM190 429q29 25 50 34t48 9q31 0 57.5 -14.5t45.5 -40.5t29.5 -62.5t10.5 -79.5q0 -52 -16.5 -103t-43.5 -91t-61.5 -65t-69.5 -25
q-29 0 -50 18v-72q0 -47 12.5 -74t40.5 -42v-4h-231v4q28 18 39.5 44.5t11.5 71.5v359v199q0 25 -1.5 42t-6.5 29.5t-13.5 22.5t-21.5 22v4q21 2 44.5 8.5t46 15.5t42.5 20t34 23h3v-253z" />
    <glyph glyph-name="ydieresis" unicode="&#xff;" horiz-adv-x="412" 
d="M65 332q-9 23 -16.5 39.5t-15.5 29t-17.5 21.5t-22.5 17v4h221v-4q-32 -17 -32 -49q0 -8 3.5 -21.5t8.5 -27.5l68 -180l49 160q6 19 8 29t2 20q0 21 -8.5 37t-28.5 32v4h146v-4q-34 -27 -55 -61.5t-37 -90.5l-108 -343q-7 -22 -12.5 -37.5t-11 -26.5t-12 -20t-14.5 -18
q-38 -42 -91 -42q-34 0 -54.5 18.5t-20.5 47.5q0 27 18 45t44 18q13 0 24 -4t25 -15t20 -14.5t13 -3.5q10 0 17.5 10.5t15.5 35.5l11 34zM313 648q26 0 44 -17.5t18 -43.5t-18 -44.5t-44 -18.5t-44 18t-18 44t18 44t44 18zM127 648q26 0 44 -17.5t18 -43.5t-18 -44.5
t-44 -18.5t-44 18t-18 44t18 44t44 18z" />
    <glyph glyph-name="dotlessi" unicode="&#x131;" horiz-adv-x="252" 
d="M190 120q0 -45 11.5 -71.5t39.5 -44.5v-4h-227v4q14 12 23.5 23t15 24.5t8 30t2.5 38.5v175q0 25 -1.5 42t-6 30t-13 23t-21.5 21v4q32 6 56.5 13t43.5 15t34 17.5t30 22.5h5v-363z" />
    <glyph glyph-name="OE" unicode="&#x152;" horiz-adv-x="772" 
d="M279 652q-26 0 -40.5 -20t-23.5 -68q-8 -42 -12.5 -104t-4.5 -129q0 -316 83 -316q23 0 36.5 19t24.5 67q19 80 19 224q0 93 -6 156.5t-18 106.5q-10 35 -23 49.5t-35 14.5zM504 111v-30q0 -11 1 -18t1.5 -10t2.5 -6q8 -11 21 -11q18 0 51.5 18t65.5 44t57 53t53 65h3
l-60 -249h-4q-11 20 -26.5 26.5t-52.5 6.5h-253q-27 -14 -43 -18.5t-38 -4.5q-50 0 -96 30t-81.5 80t-57 115t-21.5 135q0 69 21.5 133t57 112.5t82 78t96.5 29.5q20 0 36.5 -4.5t43.5 -18.5h251q32 0 49 7.5t28 25.5h5l38 -238h-5q-22 34 -49.5 65t-55.5 55t-53.5 38
t-43.5 14q-24 0 -24 -31v-244h41q34 0 57 3t40 11t29.5 21.5t24.5 35.5h4v-185h-4q-11 23 -21.5 37.5t-26.5 22.5t-39 11t-58 3h-47v-208z" />
    <glyph glyph-name="oe" unicode="&#x153;" horiz-adv-x="596" 
d="M464 287q-2 29 -4.5 57.5t-7.5 51.5q-10 51 -35 51q-21 0 -31 -35.5t-13 -124.5h91zM207 447q-27 0 -38 -50q-3 -13 -5.5 -32t-4 -41.5t-2.5 -46.5t-1 -48q0 -55 4 -100t12 -74q6 -23 14 -32.5t22 -9.5q28 0 40.5 48.5t12.5 156.5q0 60 -3.5 102t-11.5 80q-11 47 -39 47z
M374 256q1 -68 28 -107t75 -39q29 0 51 14.5t47 49.5q1 -8 1 -13v-9q0 -34 -11.5 -64t-31 -52t-46 -35t-56.5 -13q-32 0 -57.5 14.5t-51.5 46.5q-58 -61 -115 -61q-36 0 -70 20t-60 53t-42 76t-16 88q0 48 16 93t43 80t61.5 56t71.5 21q29 0 54 -15.5t57 -53.5
q26 36 49 52.5t48 16.5q36 0 69.5 -26.5t55.5 -72.5q11 -23 18.5 -50.5t14.5 -69.5h-203z" />
    <glyph glyph-name="Scaron" unicode="&#x160;" horiz-adv-x="495" 
d="M352 479h-4q-12 72 -49.5 115t-87.5 43q-34 0 -56 -21.5t-22 -55.5q0 -19 9 -38t24 -33q17 -14 44 -30t78 -39q26 -12 43.5 -21t30.5 -16.5t23 -15.5t20 -18q27 -27 41.5 -62.5t14.5 -77.5q0 -49 -17.5 -91t-48 -72.5t-72 -48t-89.5 -17.5q-54 0 -105 17t-109 54l98 161
l4 -2q8 -41 22.5 -74.5t34.5 -57.5t43.5 -37.5t49.5 -13.5q18 0 34.5 7.5t29 20t19.5 29.5t7 36q0 22 -10 42.5t-27 35.5q-8 7 -17 14t-21.5 14t-29.5 15.5t-41 19.5q-23 11 -40 20t-30 18t-24 18t-22 20q-55 57 -55 139q0 46 16.5 85t46 67t70 43.5t89.5 15.5q19 0 37 -2
t37.5 -6.5t42.5 -12.5t52 -19zM266 826q33 21 71 31.5t79 10.5h8t12 -1q-23 -11 -47 -27t-46.5 -36t-42 -43t-34.5 -46q-31 46 -75.5 87t-91.5 65q8 1 14 1h9q41 0 74 -9.5t70 -32.5z" />
    <glyph glyph-name="scaron" unicode="&#x161;" horiz-adv-x="355" 
d="M265 312l-4 1q-20 66 -43 96.5t-54 30.5q-19 0 -31 -12.5t-12 -32.5q0 -23 18 -42.5t68 -50.5q37 -23 61.5 -42t39 -37.5t20.5 -38.5t6 -45q0 -68 -43 -109.5t-113 -41.5q-39 0 -76.5 13.5t-87.5 45.5l73 133l4 -1q34 -159 109 -159q24 0 40 16t16 39q0 11 -3 20t-13 19
t-27.5 23t-45.5 32q-23 15 -37 25t-23.5 17.5t-15.5 13.5t-11 13q-31 38 -31 87q0 32 11 59.5t30.5 47.5t45.5 31.5t57 11.5q66 0 138 -37zM190 620q33 21 71 31.5t79 10.5h8t12 -1q-23 -11 -47 -27t-46.5 -36t-42 -43t-34.5 -46q-31 46 -75.5 87t-91.5 65q8 1 14 1h9
q41 0 74 -9.5t70 -32.5z" />
    <glyph glyph-name="Ydieresis" unicode="&#x178;" horiz-adv-x="475" 
d="M316 133q0 -26 2 -44t8 -32t17 -26t29 -27v-4h-263v4q33 21 45.5 48.5t12.5 80.5v169l-104 256q-11 26 -18.5 42.5t-16 27t-18.5 18t-26 16.5v5h244v-5q-32 -15 -32 -43q0 -19 11 -47l86 -205l64 168q7 20 11.5 39.5t4.5 31.5q0 21 -7 33t-27 23v5h156v-5
q-31 -14 -50.5 -40t-36.5 -74l-92 -246v-169zM318 853q26 0 44 -17.5t18 -43.5t-18 -44.5t-44 -18.5t-44 18t-18 44t18 44t44 18zM132 853q26 0 44 -17.5t18 -43.5t-18 -44.5t-44 -18.5t-44 18t-18 44t18 44t44 18z" />
    <glyph glyph-name="Zcaron" unicode="&#x17d;" horiz-adv-x="485" 
d="M214 83q-8 -16 -8 -27q0 -20 23 -20q22 0 51.5 14.5t61.5 39.5t63 58t57 70h5l-65 -252h-4q-5 11 -11.5 17.5t-18.5 10.5t-31.5 5t-50.5 1h-269l253 570q13 32 13 43q0 7 -5.5 12t-13.5 5q-19 0 -44.5 -14t-53.5 -37.5t-55.5 -54.5t-49.5 -66h-5l41 239h5q9 -17 25 -24
q5 -2 8.5 -3.5t9.5 -2t16 -0.5h29h281zM242 824q33 21 71 31.5t79 10.5h8t12 -1q-23 -11 -47 -27t-46.5 -36t-42 -43t-34.5 -46q-31 46 -75.5 87t-91.5 65q8 1 14 1h9q41 0 74 -9.5t70 -32.5z" />
    <glyph glyph-name="zcaron" unicode="&#x17e;" horiz-adv-x="391" 
d="M182 65q-5 -11 -6.5 -14t-1.5 -8q0 -15 17 -15q13 0 32.5 9.5t43 26.5t50 40.5t52.5 52.5l4 -1l-43 -190h-4q-6 20 -21.5 27t-54.5 7h-239l193 373q9 19 9 26q0 16 -16 16q-13 0 -31.5 -10.5t-39 -28t-41 -40.5t-37.5 -48l-4 1l49 186h5q4 -10 9.5 -16.5t15 -10
t23.5 -4.5t36 -1h196zM195 620q33 21 71 31.5t79 10.5h8t12 -1q-23 -11 -47 -27t-46.5 -36t-42 -43t-34.5 -46q-31 46 -75.5 87t-91.5 65q8 1 14 1h9q41 0 74 -9.5t70 -32.5z" />
    <glyph glyph-name="florin" unicode="&#x192;" horiz-adv-x="452" 
d="M116 333q28 102 60 167t74 108q33 33 70.5 52.5t66.5 19.5q39 0 72 -29.5t50 -80.5l-104 -107h-8q2 19 3 33t1 36q0 66 -10.5 95t-36.5 29q-23 0 -46 -52q-11 -26 -20.5 -66.5t-19.5 -105.5q-2 -16 -3.5 -26t-3.5 -19.5t-4 -21t-6 -30.5v-2h131v-27h-138l-112 -439h-134
l111 439h-95v27h102z" />
    <glyph glyph-name="circumflex" unicode="&#x2c6;" 
d="M252 570q-67 -41 -151 -41h-8t-12 1q23 10 47.5 26.5t47 36.5t42 43t34.5 46q30 -47 74.5 -88t91.5 -64q-8 -1 -14 -1h-9q-40 0 -73 9.5t-70 31.5z" />
    <glyph glyph-name="caron" unicode="&#x2c7;" 
d="M248 620q33 21 71 31.5t79 10.5h8t12 -1q-23 -11 -47 -27t-46.5 -36t-42 -43t-34.5 -46q-31 46 -75.5 87t-91.5 65q8 1 14 1h9q41 0 74 -9.5t70 -32.5z" />
    <glyph glyph-name="ring" unicode="&#x2da;" 
d="M251 630q-17 0 -29.5 -12t-12.5 -29t12 -29.5t30 -12.5q17 0 29 12.5t12 29.5t-12 29t-29 12zM251 677q18 0 34 -7t28 -19t19 -28t7 -34t-7 -34.5t-19 -28.5t-28 -19t-34 -7q-38 0 -63.5 26t-25.5 64q0 18 7 33.5t19 27.5t28.5 19t34.5 7z" />
    <glyph glyph-name="tilde" unicode="&#x2dc;" 
d="M422 645q-19 -50 -55.5 -79t-81.5 -29q-9 0 -16.5 0.5t-16 3t-19.5 6.5t-27 10q-21 10 -46 10q-21 0 -38.5 -7.5t-43.5 -27.5q7 22 22 42t34.5 35t41 23.5t42.5 8.5q8 0 15 -0.5t15 -2.5t18.5 -5.5t25.5 -9.5q18 -7 30.5 -9.5t24.5 -2.5q44 0 75 34z" />
    <glyph glyph-name="endash" unicode="&#x2013;" horiz-adv-x="393" 
d="M10 197v73h373v-73h-373z" />
    <glyph glyph-name="emdash" unicode="&#x2014;" horiz-adv-x="573" 
d="M0 197v73h573v-73h-573z" />
    <glyph glyph-name="quoteleft" unicode="&#x2018;" horiz-adv-x="217" 
d="M118 597q26 -8 37.5 -21.5t11.5 -35.5q0 -27 -18.5 -45.5t-44.5 -18.5q-28 0 -46 19.5t-18 50.5q0 51 36 89t101 56q-24 -20 -39.5 -45t-19.5 -49z" />
    <glyph glyph-name="quoteright" unicode="&#x2019;" horiz-adv-x="217" 
d="M98 566q-26 8 -37.5 21.5t-11.5 36.5q0 26 18.5 44.5t45.5 18.5q28 0 46 -19.5t18 -50.5q0 -51 -36 -89t-101 -56q24 20 39.5 45t18.5 49z" />
    <glyph glyph-name="quotesinglbase" unicode="&#x201a;" horiz-adv-x="228" 
d="M104 -12q-29 10 -41.5 25.5t-12.5 41.5q0 32 22 53.5t53 21.5q33 0 54.5 -23t21.5 -59q0 -30 -12 -57.5t-34.5 -49.5t-53.5 -37.5t-69 -22.5q34 31 50.5 56t21.5 51z" />
    <glyph glyph-name="quotedblleft" unicode="&#x201c;" horiz-adv-x="372" 
d="M118 597q26 -8 37.5 -21.5t11.5 -35.5q0 -27 -18.5 -45.5t-44.5 -18.5q-28 0 -46 19.5t-18 50.5q0 51 36 89t101 56q-24 -20 -39.5 -45t-19.5 -49zM274 597q26 -8 37.5 -21.5t11.5 -35.5q0 -27 -18.5 -45.5t-45.5 -18.5q-28 0 -46 19.5t-18 50.5q0 51 36 89t101 56
q-24 -20 -39.5 -45t-18.5 -49z" />
    <glyph glyph-name="quotedblright" unicode="&#x201d;" horiz-adv-x="372" 
d="M98 566q-26 8 -37.5 21.5t-11.5 36.5q0 26 18.5 44.5t45.5 18.5q28 0 46 -19.5t18 -50.5q0 -51 -36 -89t-101 -56q24 20 39.5 45t18.5 49zM254 566q-26 8 -37.5 21.5t-11.5 36.5q0 26 18.5 44.5t44.5 18.5q28 0 46 -19.5t18 -50.5q0 -51 -36 -89t-101 -56q24 20 39.5 45
t19.5 49z" />
    <glyph glyph-name="quotedblbase" unicode="&#x201e;" horiz-adv-x="372" 
d="M98 -6q-26 8 -37.5 21.5t-11.5 35.5q0 27 18.5 45.5t45.5 18.5q28 0 46 -19.5t18 -50.5q0 -51 -36 -89.5t-101 -55.5q24 20 39.5 45t18.5 49zM254 -6q-26 8 -37.5 21.5t-11.5 35.5q0 27 18.5 45.5t44.5 18.5q28 0 46 -19.5t18 -50.5q0 -51 -36 -89.5t-101 -55.5
q24 20 39.5 45t19.5 49z" />
    <glyph glyph-name="dagger" unicode="&#x2020;" horiz-adv-x="472" 
d="M439 493v-80h-157v-573h-93v573h-156v80h156v194h93v-194h157z" />
    <glyph glyph-name="daggerdbl" unicode="&#x2021;" horiz-adv-x="472" 
d="M439 493v-80h-157v-100h157v-80h-157v-393h-93v393h-156v80h156v100h-156v80h156v194h93v-194h157z" />
    <glyph glyph-name="bullet" unicode="&#x2022;" horiz-adv-x="667" 
d="M337 478q28 0 52.5 -11t43 -30t29.5 -44t11 -53q0 -29 -11 -54.5t-29.5 -44t-44 -29.5t-53.5 -11q-29 0 -54 11t-44 29.5t-30 43.5t-11 54t11 54.5t30 44t44.5 29.5t55.5 11z" />
    <glyph glyph-name="ellipsis" unicode="&#x2026;" horiz-adv-x="688" 
d="M576 138q32 0 54 -22.5t22 -55.5q0 -31 -22 -53t-54 -22t-54.5 22t-22.5 54t22.5 54.5t54.5 22.5zM346 138q32 0 54 -22.5t22 -55.5q0 -31 -22 -53t-54 -22t-54.5 22t-22.5 54t22.5 54.5t54.5 22.5zM117 138q32 0 54 -22.5t22 -55.5q0 -31 -22 -53t-54 -22t-54.5 22
t-22.5 54t22.5 54.5t54.5 22.5z" />
    <glyph glyph-name="perthousand" unicode="&#x2030;" horiz-adv-x="978" 
d="M803 317q-38 0 -38 -134q0 -90 9 -127.5t30 -37.5q40 0 40 129q0 88 -10 129t-31 41zM805 346q30 0 58 -14.5t49.5 -39.5t34.5 -57t13 -67q0 -34 -13.5 -66.5t-35.5 -57.5t-50 -40.5t-58 -15.5q-29 0 -56.5 15t-49 40t-34.5 57t-13 66q0 35 13 67.5t34.5 57.5t49.5 40
t58 15zM469 317q-38 0 -38 -134q0 -90 9 -127.5t31 -37.5q40 0 40 129q0 88 -10 129t-32 41zM472 346q48 0 94 -41q61 -57 61 -137q0 -34 -13.5 -66.5t-35.5 -57.5t-50.5 -40.5t-58.5 -15.5q-29 0 -56.5 15t-49 40t-34.5 57t-13 66q0 35 13 67.5t34.5 57.5t49.5 40t59 15z
M140 -16h-34l401 699h32zM171 650q-38 0 -38 -134q0 -90 9 -127.5t30 -37.5q40 0 40 129q0 88 -10 129t-31 41zM173 679q30 0 58 -14.5t49.5 -39.5t34.5 -57t13 -67q0 -34 -13.5 -66.5t-35.5 -57.5t-50 -40.5t-58 -15.5q-29 0 -56.5 15t-49 40t-34.5 57t-13 66q0 35 13 67.5
t34.5 57.5t49.5 40t58 15z" />
    <glyph glyph-name="guilsinglleft" unicode="&#x2039;" horiz-adv-x="212" 
d="M27 223q30 39 50.5 67.5t35 51t25.5 42.5t21 42q-2 -57 -11.5 -103t-31.5 -98q10 -24 17.5 -46.5t13 -46t8 -49.5t4.5 -59q-11 23 -22 44t-26 43.5t-35 49t-49 62.5z" />
    <glyph glyph-name="guilsinglright" unicode="&#x203a;" horiz-adv-x="212" 
d="M185 224q-29 -36 -48.5 -61.5t-33.5 -47t-25.5 -43.5t-24.5 -51q0 24 3.5 51.5t9.5 55t13.5 52.5t15.5 44q-20 48 -30.5 97t-11.5 101q11 -24 22.5 -45.5t27 -44.5t35.5 -49t47 -59z" />
    <glyph glyph-name="Euro" unicode="&#x20ac;" horiz-adv-x="543" 
d="M249 442h242l-16 -46h-228v-4v-23t-1 -20q0 -3 -0.5 -7t-0.5 -5v-4h217l-15 -46h-201q1 -29 2.5 -54.5t4.5 -48.5q19 -162 111 -162q65 0 113 82q8 14 17 34t20 50h33v-149q-118 -56 -196 -56q-101 0 -171 85q-66 86 -78 219h-56l15 46h39v7q0 29 3 56h-58l15 46h49
q10 59 32.5 105t57.5 83q71 73 168 73q69 0 180 -60v-130h-33q-9 19 -16.5 34t-14.5 24q-8 15 -15.5 26t-15.5 19q-36 45 -83 45q-60 0 -88 -67q-11 -25 -19 -63.5t-13 -86.5v-2z" />
    <glyph glyph-name="trademark" unicode="&#x2122;" horiz-adv-x="754" 
d="M509 257l-65 269l-11 -166v-20q0 -23 8 -37t31 -29v-7h-115v7q11 7 18.5 14t12 16.5t7 22.5t4.5 33l14 229q1 32 -6 46t-27 24v8h129l40 -175l42 175h125v-8q-17 -10 -23.5 -21.5t-6.5 -31.5v-10t1 -12l15 -241q2 -29 9.5 -43.5t26.5 -25.5v-7h-167v7q20 14 26.5 26.5
t6.5 35.5v8t-1 17l-11 165l-61 -269h-22zM257 267h-173v7q21 14 28 28.5t7 46.5v257q0 20 -1.5 25t-8.5 5q-6 0 -18 -10t-25.5 -25t-27 -33t-22.5 -34l-10 1l23 151h9q5 -11 15 -15t33 -4h172q34 0 45 19h9l23 -155h-10q-11 19 -25 38t-27.5 34t-24.5 24t-17 9t-8.5 -6.5
t-2.5 -23.5v-257q0 -32 8 -48t29 -26v-8z" />
    </font>
</defs>
</svg>
