

<?xml version="1.0" encoding="utf-8"?>
<!-- Generator: Adobe Illustrator 16.0.0, SVG Export Plug-In . SVG Version: 6.00 Build 0)  -->
<!DOCTYPE svg PUBLIC "-//W3C//DTD SVG 1.1//EN" "http://www.w3.org/Graphics/SVG/1.1/DTD/svg11.dtd">
<svg version="1.1" xmlns="http://www.w3.org/2000/svg" xmlns:xlink="http://www.w3.org/1999/xlink" x="0px" y="0px" width="1600px"
   height="1200px" viewBox="0 0 1600 1200" enable-background="new 0 0 1600 1200" xml:space="preserve">
<defs>
  <clipPath id="constellations-svg">
        <path fill="#E0E0E0" d="M1155.158,343.262c12.594-20.728,19.082-45.153,37.838-61.615
          c17.871-15.686,47.525-20.565,70.355-15.902c21.356,4.362,39.476,24.608,49.631,42.845c13.08,23.492,2.38,51.786-9.618,73.417
          c-3.916,7.06-8.245,13.888-12.522,20.731c-1.715,2.742,2.612,5.25,4.316,2.523c13.987-22.373,28.037-45.478,28.7-72.644
          c0.535-21.927-13.802-40.619-29.293-54.807c-7.308-6.692-15.602-12.444-25.047-15.604c-10.628-3.557-22.557-3.42-33.56-2.231
          c-11.296,1.22-22.441,4.119-32.75,8.919c-10.478,4.878-19.133,13.369-25.932,22.566c-11.099,15.013-16.775,33.377-26.436,49.278
          C1149.162,343.501,1153.487,346.012,1155.158,343.262L1155.158,343.262z"/>
        <path fill="#E0E0E0" d="M1290.5,405c0.059,5.223,5.407,7.244,9.631,8.577c6.271,1.979,14.046,2.534,19.352,6.745
          c8.035,6.378-4.91,10.762-9.653,11.607c-7.55,1.346-15.243,0.727-22.829,1.571c-3.168,0.353-3.202,5.356,0,5
          c10.414-1.159,39.61,2.385,39.774-14.085c0.072-7.259-7.739-10.582-13.512-12.426c-3-0.958-17.716-2.797-17.763-6.989
          C1295.464,401.778,1290.464,401.774,1290.5,405L1290.5,405z"/>
        <path fill="#E0E0E0" d="M1284.232,434.232c-17.117,18.062-0.609,45.553,11.235,61.65c3.264,4.435,6.849,8.364,10.838,12.158
          c3.387,3.22,10.803,8.895,7.973,14.243c-5.619,10.623-27.985,6.932-35.511,0.949c-2.495-1.985-6.059,1.529-3.535,3.535
          c8.724,6.937,23.149,8.655,33.642,5.386c4.819-1.502,9.895-5.562,10.981-10.67c1.101-5.172-3.057-9.902-6.305-13.342
          c-4.402-4.662-9.169-8.716-13.069-13.851c-4.173-5.494-7.922-11.306-11.191-17.379c-6.289-11.684-11.975-28.113-1.522-39.144
          C1289.983,435.429,1286.454,431.888,1284.232,434.232L1284.232,434.232z"/>
        <path fill="#E0E0E0" d="M1272.59,523.335c-5.848,22.187-33.369,2.179-45.328-3.494c-2.896-1.374-5.436,2.936-2.523,4.317
          c15.178,7.2,45.471,27.831,52.672,0.506C1278.233,521.543,1273.41,520.22,1272.59,523.335L1272.59,523.335z"/>
        <path fill="#E0E0E0" d="M1227.262,519.841c-13.374-5.836-26.911-6.949-41.265-5.054c-11.053,1.459-23.297,5.049-33.926-0.027
          c-7.284-3.479-13.401-10.623-19.239-16.055c-6.729-6.262-13.282-12.713-19.792-19.202c-4.143-4.128-7.778-8.571-12.491-12.097
          c-5.22-3.903-11.729-5.954-17.885-7.817c-3.094-0.937-4.406,3.89-1.328,4.821c5.879,1.779,11.625,3.757,16.688,7.313
          c5.327,3.741,9.459,9.309,14.042,13.865c6.549,6.51,13.188,12.926,19.97,19.192c5.443,5.031,10.901,10.791,17.512,14.296
          c9.577,5.08,20.823,3.107,31.013,1.526c15.23-2.363,29.745-2.744,44.178,3.555
          C1227.662,525.435,1230.211,521.128,1227.262,519.841L1227.262,519.841z"/>
        <path fill="#E0E0E0" d="M1082.664,459.589c-6.613-1.989-4.621-10.956-3.254-15.925c0.857-3.114-3.966-4.434-4.82-1.329
          c-2.199,7.984-3.031,19.136,6.746,22.075C1084.432,465.341,1085.744,460.515,1082.664,459.589L1082.664,459.589z"/>
        <path fill="#E0E0E0" d="M1079.768,439.232c-8.576-10.242-23.761-19.897-25.268-34.232c-0.833,0.833-1.667,1.667-2.5,2.5
          c15.236-0.034,30.634-1.551,45.377-5.498c14.514-3.886,30.338-11.249,36.781-25.74c1.299-2.919-3.009-5.465-4.316-2.523
          c-6.156,13.843-21.215,20.074-34.97,23.757c-13.902,3.722-28.516,4.973-42.872,5.005c-1.255,0.003-2.643,1.14-2.5,2.5
          c1.71,16.267,17.009,26.156,26.732,37.768C1078.305,445.243,1081.822,441.686,1079.768,439.232L1079.768,439.232z"/>
        <path fill="#E0E0E0" d="M1134.41,374.665c1.88-7.617-0.516-13.881-5.754-19.476c-4.557-4.867-13.271-9.542-12.026-17.31
          c1.844-11.494,29.761,5.464,35.706,6.532c3.151,0.566,4.499-4.252,1.328-4.821c-6.814-1.224-13.381-5.594-19.865-7.975
          c-5.9-2.167-14.91-4.925-19.891,0.538c-5.274,5.784-1.462,14.081,3.023,18.828c6.311,6.679,15.278,11.732,12.658,22.355
          C1128.817,376.466,1133.639,377.794,1134.41,374.665L1134.41,374.665z"/>
        <path fill="#E0E0E0" d="M648,400.5c3.225,0,3.225-5,0-5S644.775,400.5,648,400.5L648,400.5z"/>
        <path fill="#E0E0E0" d="M655.509,392.266c3.699-10.524,7.468-21.025,11.271-31.512c3.337-9.202,6.716-18.387,10.167-27.547
          c2.98-7.912,5.686-16.148,9.498-23.705c13.099-25.964,26.982-51.549,40.809-77.131c1.533-2.836-2.784-5.361-4.317-2.523
          c-13.827,25.583-27.676,51.182-40.809,77.131c-8.003,15.813-13.271,33.489-19.323,50.119
          c-4.097,11.258-8.144,22.537-12.116,33.84C649.615,393.986,654.447,395.287,655.509,392.266L655.509,392.266z"/>
        <path fill="#E0E0E0" d="M727.253,232.371c6.981-10.103,17.617-17.479,30.115-18.156c11.896-0.645,21.752,6.377,27.064,16.656
          c1.481,2.865,5.795,0.336,4.317-2.523c-6.23-12.054-17.714-19.408-31.382-19.132c-14.222,0.287-26.609,9.311-34.433,20.632
          C721.097,232.507,725.433,235.004,727.253,232.371L727.253,232.371z"/>
        <path fill="#E0E0E0" d="M784.433,230.871c15.217,28.397,29.353,57.304,42.104,86.892c11.19,25.965,21.714,52.205,33.305,78
          c1.319,2.937,5.627,0.392,4.316-2.523c-11.414-25.404-21.823-51.229-32.797-76.821c-12.866-30.002-27.194-59.299-42.611-88.07
          C787.227,225.504,782.91,228.03,784.433,230.871L784.433,230.871z"/>
        <path fill="#E0E0E0" d="M859.589,395.165c4.466,11.712,3.957,24.133-4.203,34.086c-7.888,9.621-20.183,14.724-32.129,16.956
          c-26.033,4.863-55.492-6.169-61.253-34.272c-0.647-3.158-5.466-1.818-4.821,1.329c6.191,30.199,36.86,42.066,64.889,38.174
          c26.118-3.627,51.335-23.492,44.089-52.267c-0.457-1.817-1.083-3.587-1.749-5.335
          C863.274,390.854,858.438,392.146,859.589,395.165L859.589,395.165z"/>
        <path fill="#E0E0E0" d="M761.751,411.338c-5.838-13.432-14.265-25.734-20.891-38.787c-6.404-12.615-14.986-29.541-10.82-44.085
          c2.022-7.061,8.364-10.937,15.024-12.916c7.861-2.336,17.953-3.222,25.624,0.281c13.304,6.075,11.288,24.7,9.13,36.384
          c-3.441,18.633-10.95,36.292-18.136,53.721c-1.229,2.981,3.61,4.267,4.821,1.329c5.585-13.546,11.147-27.096,15.157-41.212
          c3.772-13.279,7.576-29.673,2.128-43.022c-5.935-14.545-22.273-15.648-35.822-13.283c-14.42,2.518-24.23,12.138-23.896,27.109
          c0.321,14.366,7.436,28.504,13.893,40.99c6.249,12.082,14.043,23.528,19.471,36.015
          C758.716,416.812,763.023,414.263,761.751,411.338L761.751,411.338z"/>
        <path fill="#E0E0E0" d="M761.682,405.936c-11.774,28.724-38.643,45.799-69.585,44.662c-13.744-0.505-26.639-6.56-33.876-18.525
          c-7.212-11.922-6.591-26.915-2.711-39.807c0.932-3.096-3.895-4.408-4.821-1.329c-4.25,14.122-4.359,29.418,2.659,42.678
          c6.875,12.989,20.32,19.812,34.427,21.64c34.495,4.469,65.882-16.646,78.729-47.99
          C767.726,404.28,762.887,402.995,761.682,405.936L761.682,405.936z"/>
        <path fill="#E0E0E0" d="M232.592,499.266c-20.194,5.25-51.87,7.225-64.757-12.731c-17.049-26.402,16.362-46.583,37.919-52.867
          c3.089-0.9,1.773-5.726-1.329-4.821c-22.507,6.561-53.061,24.618-44.535,52.294c9.025,29.298,46.958,28.703,71.285,23.58
          c0.918-0.194,1.837-0.397,2.746-0.633C237.04,503.277,235.715,498.454,232.592,499.266L232.592,499.266z"/>
        <path fill="#E0E0E0" d="M206.416,429.51c-3.611-14.445-7.222-28.89-10.833-43.335c-0.782-3.127-5.604-1.8-4.821,1.329
          c3.611,14.445,7.222,28.89,10.833,43.335C202.376,433.966,207.198,432.639,206.416,429.51L206.416,429.51z"/>
        <path fill="#E0E0E0" d="M190.34,384.428c-12.663,2.962-26.948,5.929-39.696,1.784c-9.112-2.963-14.338-11.087-17.582-19.618
          c-2.038-5.361-4.073-11.376-4.226-17.131c-0.184-6.904,3.454-13.344,7.747-18.477c8.555-10.229,21.734-17.649,34.597-20.818
          c3.13-0.771,1.802-5.593-1.329-4.821c-14.222,3.504-28.181,11.795-37.597,23.053c-4.53,5.416-7.494,11.718-8.312,18.741
          c-0.774,6.64,1.8,13.708,3.97,19.882c3.438,9.778,9.162,18.93,19.049,23.099c13.932,5.874,30.597,2.431,44.708-0.871
          C194.809,388.515,193.477,383.694,190.34,384.428L190.34,384.428z"/>
        <path fill="#E0E0E0" d="M172.927,307.093c-8.544-20.705-16.083-58.489,12.242-66.894c28.87-8.566,43.292,22.842,46.711,46.197
          c0.064,0.438,0.014,0.106-0.04-0.311c0.408,3.151,5.413,3.191,5,0c-2.643-20.41-12.982-47.13-35.501-51.733
          c-15.619-3.192-32.152,4.68-38.193,19.475c-5.425,13.286-2.605,29.449,1.048,42.815c1.087,3.979,2.337,7.962,3.913,11.779
          C169.318,311.359,174.157,310.074,172.927,307.093L172.927,307.093z"/>
        <path fill="#E0E0E0" d="M235.005,288.496c18.056-6.139,36.112-12.278,54.168-18.417c3.035-1.032,1.732-5.862-1.329-4.821
          c-18.056,6.139-36.112,12.278-54.168,18.417C230.641,284.707,231.943,289.537,235.005,288.496L235.005,288.496z"/>
        <path fill="#E0E0E0" d="M290.919,267.004c-6.735-17.441-15.332-53.525,7.989-62.863c11.583-4.638,24.7-1.38,32.841,7.79
          c8.56,9.641,11.997,23.636,15.018,35.817c0.775,3.128,5.598,1.801,4.821-1.329c-3.452-13.92-7.662-28.907-17.75-39.605
          c-9.169-9.723-23.951-11.825-36.259-7.494c-26.965,9.49-19.146,49.165-11.481,69.013
          C287.247,271.309,292.083,270.017,290.919,267.004L290.919,267.004z"/>
        <path fill="#E0E0E0" d="M349.842,249.495c19.994-7.712,50.979-16.424,68.563,0.656c11.586,11.254,9.627,27.25,0.091,38.908
          c-9.085,11.107-22.946,19.306-36.617,23.328c-3.086,0.908-1.771,5.733,1.329,4.821c26.462-7.784,63.469-36.734,41.95-66.798
          c-16.904-23.615-54.155-14.412-76.646-5.736C345.537,245.821,346.829,250.657,349.842,249.495L349.842,249.495z"/>
        <path fill="#E0E0E0" d="M380.133,315.461c5.053,15.347,10.105,30.694,15.158,46.041c1.003,3.048,5.833,1.742,4.821-1.329
          c-5.053-15.347-10.105-30.694-15.158-46.041C383.951,311.084,379.122,312.39,380.133,315.461L380.133,315.461z"/>
        <path fill="#E0E0E0" d="M398.366,363.249c14.494-4.049,29.643-11.377,44.982-10.636c17.615,0.851,24.83,22.207,24.709,37.14
          c-0.176,21.853-22.627,36.992-41.695,42.347c-3.1,0.871-1.781,5.695,1.329,4.821c22.104-6.208,45.176-23.443,45.375-48.271
          c0.129-16.085-8.143-36.927-25.488-40.509c-16.661-3.441-34.881,5.912-50.542,10.287
          C393.936,359.293,395.254,364.118,398.366,363.249L398.366,363.249z"/>
        <path fill="#E0E0E0" d="M424.616,435.174c4.766,15.015,9.031,32,3.433,47.375c-2.98,8.184-9.61,14.068-17.164,17.992
          c-7.489,3.89-16.563,6.631-24.849,3.953c-12.51-4.044-19.534-18.901-23.835-30.21c-2.76-7.255-4.979-14.898-6.28-22.564
          c-0.539-3.174-5.356-1.824-4.821,1.329c1.542,9.087,4.347,18.096,7.881,26.588c5.213,12.524,13.405,26.197,27.286,30.152
          c8.347,2.379,17.083-0.538,24.744-3.802c8.429-3.591,15.623-9.746,19.969-17.84c8.222-15.314,4.352-34.467-0.287-50.237
          c-0.4-1.36-0.827-2.713-1.256-4.064C428.465,430.783,423.637,432.092,424.616,435.174L424.616,435.174z"/>
        <path fill="#E0E0E0" d="M352.846,449.973c-18.872,6.329-37.744,12.657-56.615,18.985c-3.041,1.02-1.737,5.85,1.329,4.821
          c18.872-6.329,37.744-12.657,56.615-18.985C357.216,453.775,355.912,448.945,352.846,449.973L352.846,449.973z"/>
        <path fill="#E0E0E0" d="M294.737,472.631c4.775,10.094,8.199,21.107,10.137,32.085c1.413,8.004,1.74,16.579-1.117,24.302
          c-3.27,8.84-13.218,13.001-21.761,14.904c-15.164,3.376-27.647-6.437-35.562-18.386c-3.245-4.899-5.874-10.232-8.008-15.7
          c-0.729-1.869-1.386-3.767-1.973-5.686c-0.207-0.673-0.738-3.219-0.696-2.473c-0.183-3.205-5.184-3.223-5,0
          c0.161,2.829,1.469,5.779,2.432,8.393c2.038,5.529,4.589,10.878,7.626,15.927c7.162,11.906,17.921,21.994,32.249,23.456
          c16.15,1.648,33.711-8.158,37.033-24.497c3.134-15.415-2.103-32.417-7.61-46.707c-1.058-2.744-2.175-5.482-3.433-8.141
          C297.676,467.194,293.366,469.733,294.737,472.631L294.737,472.631z"/>
        <path fill="#E0E0E0" d="M254.681,361.502c5.417,16.25,10.833,32.501,16.25,48.752c1.014,3.043,5.844,1.739,4.821-1.329
          c-5.417-16.25-10.833-32.501-16.25-48.752C258.488,357.13,253.658,358.435,254.681,361.502L254.681,361.502z"/>
        <path fill="#E0E0E0" d="M274.006,412c19.139-5.778,38.279-11.556,57.418-17.334c3.078-0.929,1.766-5.756-1.329-4.821
          c-19.139,5.778-38.279,11.556-57.418,17.334C269.599,408.108,270.912,412.935,274.006,412L274.006,412z"/>
        <path fill="#E0E0E0" d="M333.17,391.591c-5.145-18.333-10.29-36.666-15.435-54.999c-0.87-3.1-5.694-1.781-4.821,1.329
          c5.145,18.333,10.29,36.666,15.435,54.999C329.219,396.02,334.043,394.702,333.17,391.591L333.17,391.591z"/>
        <path fill="#E0E0E0" d="M314.661,334.847c-19.411,7.86-38.823,15.72-58.234,23.581c-2.948,1.194-1.661,6.032,1.329,4.821
          c19.411-7.86,38.823-15.72,58.234-23.581C318.938,338.474,317.651,333.636,314.661,334.847L314.661,334.847z"/>
        <path fill="#E0E0E0" d="M555.33,703.262c14.11-19.555,28.219-39.109,42.329-58.664c1.891-2.62-2.45-5.112-4.317-2.523
          c-14.11,19.555-28.219,39.109-42.329,58.664C549.122,703.358,553.462,705.851,555.33,703.262L555.33,703.262z"/>
        <path fill="#E0E0E0" d="M594.835,645.747c30,9.777,60,19.555,90,29.332c3.075,1.002,4.381-3.827,1.329-4.822
          c-30-9.777-60-19.555-90-29.332C593.09,639.923,591.784,644.752,594.835,645.747L594.835,645.747z"/>
        <path fill="#E0E0E0" d="M683.341,671.406c-13.167,18.944-26.334,37.888-39.501,56.832c-1.845,2.655,2.491,5.15,4.317,2.523
          c13.167-18.944,26.334-37.888,39.501-56.832C689.504,671.274,685.167,668.779,683.341,671.406L683.341,671.406z"/>
        <path fill="#E0E0E0" d="M646.663,727.089c-30.942-9.166-61.885-18.333-92.828-27.5c-3.099-0.918-4.414,3.908-1.329,4.822
          c30.942,9.166,61.885,18.333,92.828,27.5C648.433,732.829,649.747,728.003,646.663,727.089L646.663,727.089z"/>
        <path fill="#E0E0E0" d="M644.737,731.658c21,9.332,42.001,18.662,63.001,27.994c2.919,1.297,5.465-3.011,2.523-4.318
          c-21-9.33-42.001-18.662-63.001-27.992C644.341,726.044,641.795,730.352,644.737,731.658L644.737,731.658z"/>
        <path fill="#E0E0E0" d="M707.232,755.726c-21,24.091-42.001,48.182-63.001,72.272c-2.109,2.419,1.413,5.971,3.535,3.535
          c21-24.091,42.001-48.182,63.001-72.272C712.876,756.842,709.354,753.291,707.232,755.726L707.232,755.726z"/>
        <path fill="#E0E0E0" d="M647.26,827.607c-21.833-9.672-43.666-19.343-65.499-29.014c-2.92-1.294-5.466,3.014-2.523,4.316
          c21.833,9.672,43.666,19.343,65.499,29.014C647.657,833.218,650.203,828.91,647.26,827.607L647.26,827.607z"/>

        <path fill="#E0E0E0" d="M582.268,802.52c21.833-23.75,43.666-47.501,65.499-71.252c2.178-2.369-1.349-5.914-3.535-3.535
          c-21.833,23.75-43.666,47.501-65.499,71.252C576.555,801.354,580.082,804.898,582.268,802.52L582.268,802.52z"/>
        <path fill="#E0E0E0" d="M578.341,799.49c-14.5,19.916-29,39.832-43.5,59.748c-1.901,2.611,2.44,5.103,4.317,2.523
          c14.5-19.916,29-39.832,43.5-59.748C584.56,799.402,580.219,796.911,578.341,799.49L578.341,799.49z"/>
        <path fill="#E0E0E0" d="M537.665,858.089c-29.833-9.958-59.667-19.916-89.5-29.874c-3.067-1.023-4.372,3.807-1.329,4.822
          c29.833,9.958,59.667,19.916,89.5,29.874C539.403,863.935,540.707,859.104,537.665,858.089L537.665,858.089z"/>
        <path fill="#E0E0E0" d="M449.659,831.888c13.308-19.209,26.615-38.417,39.923-57.626c1.841-2.658-2.495-5.154-4.317-2.523
          c-13.308,19.209-26.615,38.417-39.923,57.626C443.5,832.022,447.836,834.519,449.659,831.888L449.659,831.888z"/>
        <path fill="#E0E0E0" d="M486.758,775.411c31.026,9.25,62.051,18.501,93.077,27.752c3.098,0.923,4.411-3.903,1.329-4.822
          c-31.026-9.25-62.051-18.501-93.077-27.752C484.99,769.666,483.676,774.492,486.758,775.411L486.758,775.411z"/>
        <path fill="#E0E0E0" d="M489.19,774.768c21.916-23.666,43.832-47.333,65.748-71c2.187-2.361-1.34-5.905-3.535-3.535
          c-21.916,23.666-43.832,47.333-65.748,71C483.468,773.594,486.996,777.138,489.19,774.768L489.19,774.768z"/>
        <path fill="#E0E0E0" d="M554.433,699.842c-22.724-9.777-45.447-19.555-68.171-29.332c-2.928-1.261-5.478,3.046-2.523,4.316
          c22.724,9.777,45.447,19.555,68.171,29.332C554.837,705.419,557.387,701.112,554.433,699.842L554.433,699.842z"/>
        <path fill="#E0E0E0" d="M483.232,670.9c-20,24.354-40,48.706-60,73.06c-2.029,2.47,1.487,6.029,3.535,3.535
          c20-24.353,40-48.706,60-73.06C488.796,671.966,485.28,668.406,483.232,670.9L483.232,670.9z"/>
        <path fill="#E0E0E0" d="M423.738,747.887c20.808,9.09,41.615,18.182,62.423,27.271c2.924,1.278,5.472-3.028,2.523-4.316
          c-20.808-9.092-41.615-18.182-62.423-27.273C423.338,742.291,420.79,746.598,423.738,747.887L423.738,747.887z"/>
        <path fill="#E0E0E0" d="M511.042,853.306c1.877,8.786,3.755,17.572,5.632,26.359c0.674,3.152,5.493,1.814,4.821-1.33
          c-1.877-8.786-3.755-17.572-5.632-26.359C515.19,848.823,510.371,850.161,511.042,853.306L511.042,853.306z"/>
        <path fill="#E0E0E0" d="M518.421,881.411c29.805,8,59.61,16,89.415,24c3.119,0.837,4.44-3.987,1.329-4.822
          c-29.805-8-59.61-16-89.415-24C516.632,875.752,515.31,880.576,518.421,881.411L518.421,881.411z"/>
        <path fill="#E0E0E0" d="M610.268,904.768c21.667-21.832,43.333-43.664,65-65.496c2.273-2.29-1.262-5.826-3.535-3.535
          c-21.667,21.832-43.333,43.664-65,65.496C604.459,903.522,607.994,907.059,610.268,904.768L610.268,904.768z"/>
        <path fill="#E0E0E0" d="M675.911,836.839c-2.616-10.095-5.232-20.189-7.848-30.284c-0.808-3.119-5.631-1.794-4.821,1.33
          c2.616,10.095,5.232,20.189,7.848,30.284C671.897,841.288,676.72,839.963,675.911,836.839L675.911,836.839z"/>
        <path fill="#E0E0E0" d="M895.166,809c0.666,7.394,7.86,10.223,11.805,15.667c2.794,3.854,3.335,10.488,4.612,14.999
          c1.315,4.647,3.092,9.141,5.979,13.037c9.613,12.969,27.983,12.047,42.103,9.374c3.165-0.6,1.821-5.418-1.33-4.822
          c-13.07,2.476-29.646,3.34-37.94-9.196c-4.708-7.117-5.346-16.519-8.317-24.391c-2.177-5.766-11.347-8.41-11.911-14.668
          C899.879,805.815,894.877,805.788,895.166,809L895.166,809z"/>
        <path fill="#E0E0E0" d="M956.5,859.666c0.716,10.065-1.104,20.971-3.596,30.709c-1.736,6.786-7.527,12.886-13.833,15.799
          c-2.925,1.352-0.383,5.66,2.523,4.318c6.665-3.079,12.643-9.372,15.235-16.21c2.105-5.555,2.804-11.714,3.608-17.569
          c0.771-5.616,1.465-11.372,1.062-17.047C961.272,856.469,956.271,856.447,956.5,859.666L956.5,859.666z"/>
        <path fill="#E0E0E0" d="M939.668,910.744c7.354,1.949,15.113,2.128,21.688-2.164c5.928-3.87,9.263-10.554,11.61-17
          c2.626-7.211,3.902-14.855,5.44-22.348c0.772-3.769,1.423-11.842,5.188-14.074c2.771-1.642,0.257-5.965-2.523-4.316
          c-3.879,2.299-5.184,7.396-6.229,11.461c-1.694,6.588-2.696,13.337-4.322,19.943c-1.648,6.698-3.846,13.75-8.427,19.066
          c-5.462,6.338-13.495,6.625-21.095,4.609C937.877,905.095,936.555,909.918,939.668,910.744L939.668,910.744z"/>
        <path fill="#E0E0E0" d="M979.922,852.335c-4.469,11.864-5.469,24.492-7.379,36.924c-1.644,10.694-4.247,22.403-14.805,27.583
          c-2.895,1.42-0.359,5.731,2.523,4.316c10.503-5.152,14.369-15.893,16.446-26.717c2.622-13.663,3.082-27.627,8.036-40.776
          C985.883,850.642,981.048,849.348,979.922,852.335L979.922,852.335z"/>
        <path fill="#E0E0E0" d="M958.333,921.5c15.417,1.149,29.108-5.545,31.77-21.96c1.208-7.451,2.006-14.952,3.43-22.371
          c1.29-6.726,2.813-15.928,8.568-20.401c2.544-1.977-1.022-5.488-3.535-3.535c-4.606,3.58-6.587,9.761-8.125,15.149
          c-2.092,7.332-3.079,14.98-4.117,22.516c-0.989,7.186-1.769,14.407-6.925,19.985c-5.29,5.723-13.829,6.157-21.065,5.617
          C955.115,916.26,955.138,921.262,958.333,921.5L958.333,921.5z"/>
        <path fill="#E0E0E0" d="M997.922,855.665c7.743,21.998-18.023,65.579,18.413,71.079c3.153,0.476,4.509-4.342,1.33-4.822
          c-6.694-1.01-12.788-3.6-15.319-10.308c-2.212-5.861-1.529-12.662-0.883-18.745c1.318-12.393,5.582-26.312,1.281-38.534
          C1001.681,851.315,996.849,852.615,997.922,855.665L997.922,855.665z"/>
        <path fill="#E0E0E0" d="M1019.158,923.071c-6.134-9.239-3.277-21.4-1.174-31.488c1.955-9.376,5.108-19.667,2.76-29.248
          c-0.768-3.13-5.59-1.802-4.822,1.33c2.504,10.211-1.903,21.831-3.81,31.836c-1.896,9.948-3.171,21.207,2.729,30.094
          C1016.615,928.267,1020.948,925.766,1019.158,923.071L1019.158,923.071z"/>
        <path fill="#E0E0E0" d="M1016.174,863.595c11.551,17.188-6.8,63.496,26.826,61.905c3.21-0.152,3.225-5.152,0-5
          c-6.199,0.293-11.215-1.405-14.16-7.115c-2.741-5.313-2.881-12.022-3.128-17.854c-0.465-10.98,1.247-24.835-5.22-34.459
          C1018.704,858.41,1014.37,860.91,1016.174,863.595L1016.174,863.595z"/>
        <path fill="#E0E0E0" d="M1044.768,921.232c-9.699-12.465-2.012-30.619-0.413-44.545c1.74-15.157-3.439-30.91-12.53-42.949
          c-1.916-2.539-6.262-0.052-4.316,2.523c10.982,14.547,13.759,31.291,10.505,48.951c-2.476,13.439-5.9,27.836,3.22,39.555
          C1043.211,927.311,1046.723,923.744,1044.768,921.232L1044.768,921.232z"/>
        <path fill="#E0E0E0" d="M1029.666,837.5c16.671,2.003,33.698,1.449,49.252-5.426c13.532-5.98,23.381-17.36,29.078-30.771
          c10.629-25.021,15.276-60.58-3.896-82.737c-2.113-2.442-5.634,1.11-3.535,3.535c17.827,20.604,12.512,54.552,2.713,77.619
          c-5.315,12.514-14.53,22.22-26.884,28.037c-14.367,6.767-31.308,6.596-46.729,4.743
          C1026.469,832.116,1026.506,837.12,1029.666,837.5L1029.666,837.5z"/>
        <path fill="#E0E0E0" d="M1104.101,722.101c4.575-5.698,4.809-14.931,5.528-21.873c0.684-6.602,1.067-13.259,1.204-19.895
          c0.029-1.428-1.163-2.415-2.5-2.5c-12.949-0.824-32.86-0.811-41.491,10.571c-1.95,2.571,2.396,5.058,4.316,2.523
          c4.683-6.175,14.966-7.203,22.056-7.852c5-0.457,10.104-0.562,15.119-0.243c-0.833-0.833-1.667-1.667-2.5-2.5
          c-0.107,5.216-0.411,10.432-0.819,15.632c-0.342,4.355-0.816,8.701-1.545,13.01c-0.5,2.956-0.951,7.158-2.903,9.591
          C1098.567,721.054,1102.082,724.615,1104.101,722.101L1104.101,722.101z"/>
        <path fill="#E0E0E0" d="M1070.262,687.508c-25.373-16.584-58.13-23.969-86.523-10.666c-2.918,1.366-0.378,5.676,2.523,4.316
          c26.729-12.522,57.729-4.854,81.477,10.666C1070.446,693.595,1072.949,689.264,1070.262,687.508L1070.262,687.508z"/>
        <path fill="#E0E0E0" d="M986.768,677.232c-5.599-7.117-12.072-12.767-20.666-15.841c-6.468-2.314-13.253-2.779-19.174-6.55
          c-2.729-1.738-5.233,2.591-2.523,4.316c5.367,3.419,11.375,4.539,17.426,6.153c9.078,2.422,15.681,8.182,21.402,15.456
          C985.225,683.301,988.737,679.736,986.768,677.232L986.768,677.232z"/>
        <path fill="#E0E0E0" d="M943.508,655.738c-6.665,11.874-7.641,25.245-7.675,38.595c-0.008,3.225,4.992,3.224,5,0
          c0.032-12.453,0.766-24.979,6.991-36.071C949.404,655.447,945.085,652.927,943.508,655.738L943.508,655.738z"/>
        <path fill="#E0E0E0" d="M936.565,693.232C918.199,710.236,911.94,736.762,912.5,761c0.074,3.219,5.074,3.227,5,0
          c-0.53-22.973,5.169-48.094,22.601-64.232C942.472,694.573,938.927,691.046,936.565,693.232L936.565,693.232z"/>
        <path fill="#E0E0E0" d="M912.5,761c0.031,7.785,0.469,15.771,3.468,23.053c2.483,6.03,6.895,10.711,11.834,14.837
          c14.146,11.816,31.255,20.126,49.033,24.871c3.12,0.832,4.442-3.991,1.33-4.822c-16.292-4.347-31.744-11.773-45.041-22.147
          c-4.659-3.634-8.943-7.639-11.755-12.898C917.7,777.027,917.53,768.58,917.5,761C917.487,757.776,912.487,757.775,912.5,761
          L912.5,761z"/>
        <path fill="#E0E0E0" d="M975.089,820.685c-2.638,6.395-7.295,12.287-12.884,16.325c-7.95,5.744-21.355,7.512-29.342,0.881
          c-12.161-10.097-14.652-33.445-34.53-32.058c-3.198,0.224-3.22,5.225,0,5c19.853-1.386,20.958,28.986,38.002,34.578
          c18.843,6.181,36.521-6.296,43.576-23.396C981.141,819.033,976.301,817.748,975.089,820.685L975.089,820.685z"/>
</clipPath>
</defs>
</svg>